<svg xmlns="http://www.w3.org/2000/svg" viewBox="0 0 224 48" role="img" aria-label="АНО МОСТ">
  <defs>
    <linearGradient id="g1" x1="0%" y1="0%" x2="100%" y2="100%">
      <stop offset="0%" stop-color="#1a5fb4"/>
      <stop offset="100%" stop-color="#3584e4"/>
    </linearGradient>
    <linearGradient id="g2" x1="0%" y1="100%" x2="100%" y2="0%">
      <stop offset="0%" stop-color="#e01b24"/>
      <stop offset="100%" stop-color="#ff7b00"/>
    </linearGradient>
  </defs>
  <g transform="translate(4 0)">
    <path fill="url(#g1)" d="M8 38V14h6l14 16V14h6v24h-6L14 22v16H8z"/>
    <path fill="url(#g2)" d="M44 32c0-6 4-10 16-12 8-1 12-3 12-7 0-3-3-5-8-5-4 0-7 1-10 4l-4-5c4-4 9-6 15-6 9 0 14 4 14 11 0 7-5 11-17 13-7 1-11 3-11 7 0 3 3 5 9 5 4 0 8-1 11-4l4 5c-4 4-10 6-17 6-10 0-16-5-16-14z"/>
    <text x="68" y="33" font-family="Arial, Helvetica, sans-serif" font-size="20" font-weight="700" fill="#111" letter-spacing="1.5">АНО МОСТ</text>
  </g>
</svg>
