<svg xmlns="http://www.w3.org/2000/svg" fill-rule="evenodd" viewBox="0 0 100 100">
    <path d="M81.27 37.463c.135-17.243-13.784-31.38-31.028-31.515-8.328-.057-16.229 3.126-22.181 8.987-5.952 5.86-9.266 13.688-9.331 22.041-.094 12.096 6.83 23.154 17.687 28.399l.055 27.18a1.497 1.497 0 0 0 1.5 1.497c.378 0 .75-.143 1.035-.414l10.779-10.265 10.821 10.223a1.5 1.5 0 0 0 2.53-1.093l-.054-26.897c10.981-5.067 18.092-15.993 18.187-28.143zM50.812 80.215a1.501 1.501 0 0 0-2.065.004l-9.281 8.839-.045-22.413a31.09 31.09 0 0 0 10.334 1.844l.252.001a31.08 31.08 0 0 0 10.08-1.673l.044 22.201-9.319-8.803zm10.214-16.957-.056.023c-3.546 1.494-7.306 2.228-11.192 2.208a28.042 28.042 0 0 1-11.467-2.521 28.314 28.314 0 0 1-16.58-25.97c.059-7.552 3.055-14.628 8.436-19.926 5.327-5.245 12.359-8.125 19.826-8.125l.227.001c15.589.122 28.173 12.903 28.051 28.492a28.27 28.27 0 0 1-17.245 25.818z"/>
    <path d="m64.205 32.712-8.854-1.357-3.899-8.061a1.502 1.502 0 0 0-1.338-.847h-.012a1.5 1.5 0 0 0-1.34.826l-4.025 7.999-8.87 1.218a1.502 1.502 0 0 0-.852 2.552l6.363 6.301-1.583 8.813a1.501 1.501 0 0 0 2.164 1.598l7.957-4.104 7.896 4.229a1.496 1.496 0 0 0 1.58-.102c.465-.332.7-.899.608-1.462l-1.444-8.837 6.46-6.201a1.5 1.5 0 0 0-.811-2.565zm-8.294 7.147a1.502 1.502 0 0 0-.442 1.324l1.082 6.617-5.912-3.166a1.49 1.49 0 0 0-1.396-.011l-5.957 3.072 1.185-6.598a1.5 1.5 0 0 0-.421-1.331l-4.764-4.717 6.641-.912a1.5 1.5 0 0 0 1.136-.812l3.013-5.988 2.919 6.034c.215.444.635.754 1.123.83l6.629 1.016-4.836 4.642z"/>
</svg>
