<?xml version="1.0" encoding="UTF-8"?> <!-- Generator: Adobe Illustrator 26.2.1, SVG Export Plug-In . SVG Version: 6.00 Build 0) --> <svg xmlns="http://www.w3.org/2000/svg" xmlns:xlink="http://www.w3.org/1999/xlink" id="Слой_1" x="0px" y="0px" viewBox="0 0 1190.55 841.89" style="enable-background:new 0 0 1190.55 841.89;" xml:space="preserve"> <style type="text/css"> .st0{fill:#E30613;} </style> <g> <g> <path class="st0" d="M400.9,561.37v91.32h0.31c20.35,0,40.69,0.23,61.12-0.08c-0.08-12.05-0.08-24.02,0-36.08v-0.47 c-3.44-2.82-6.89-5.71-10.56-8.37c-0.23-0.16-0.39-0.31-0.63-0.47c3.44-3.36,7.59-6.1,11.19-9.39c-0.08-11.9-0.08-23.79,0-35.68 v-0.7C441.83,561.21,421.32,561.45,400.9,561.37z M420.7,581.17h21.75v10.02c-2.27,2.19-4.62,4.38-6.96,6.57 c-4.93-0.08-9.7,0.16-14.63-0.16h-0.31C420.77,592.13,420.62,586.65,420.7,581.17z M420.62,616.38c4.93-0.24,9.86-0.08,14.87-0.08 c2.35,2.11,4.62,4.3,6.96,6.5v10.09c-7.2,0.08-14.4,0-21.52,0h-0.23C420.62,627.42,420.77,621.94,420.62,616.38z"></path> <path class="st0" d="M475.4,561.37v91.4h0.31c20.35,0.08,40.61-0.08,60.96,0.08c0.47-30.21-0.08-60.49,0.23-90.7v-0.63 C516.4,561.14,495.9,561.45,475.4,561.37z M517.03,632.9c-7.2,0.08-14.24,0-21.44,0.08h-0.31c-0.08-17.29-0.08-34.59,0-51.81 h21.76V632.9z"></path> <path class="st0" d="M560.19,561.55c16.92-0.45,33.86-0.07,50.8-0.19c0.02,30.47,0.01,60.94,0,91.42 c-6.57,0.02-13.14-0.07-19.71,0.06c-0.27-23.88-0.04-47.77-0.12-71.66c-4.5,0-9.01-0.01-13.51,0.02 c-2.9,23.86-5.9,47.7-8.82,71.57c-7.87-0.01-15.73-0.01-23.6,0c-0.02-6.63-0.02-13.25,0-19.86c2.31-0.01,4.62-0.01,6.95,0.02 C554.96,609.16,557.7,585.36,560.19,561.55L560.19,561.55z"></path> <path class="st0" d="M624.01,561.45c0.16,30.44,0.08,60.88,0.08,91.25h0.31c20.42,0.16,40.77,0.08,61.2,0.08v-91.4 C665.09,561.45,644.51,561.21,624.01,561.45z M665.72,632.9c-7.2,0-14.32,0.08-21.44,0h-0.31v-51.73h21.76V632.9z"></path> <path class="st0" d="M698.68,561.41c6.59-0.08,13.19-0.12,19.79,0.04c-0.04,11.78-0.06,23.56,0.01,35.34 c7.27-0.02,14.52-0.05,21.78,0.01c0.06-11.76,0.11-23.53-0.04-35.29c6.61-0.32,13.24-0.08,19.85-0.14 c0.04,30.45,0.01,60.89,0.01,91.35c-6.61-0.07-13.24,0.15-19.85-0.14c0.15-11.99,0.02-24,0.07-36.01 c-7.29-0.01-14.58-0.01-21.87,0c0.01,12.04-0.01,24.07,0.01,36.11c-6.6,0.04-13.2,0.09-19.79-0.04 C698.72,622.23,698.69,591.82,698.68,561.41L698.68,561.41z"></path> <path class="st0" d="M768.64,561.43c20.5-0.18,41.01-0.04,61.51-0.07c0.01,6.59-0.01,13.19,0.01,19.79 c-6.95,0.07-13.89,0.02-20.82,0.02c0.04,23.76-0.18,47.53,0.11,71.29c-6.64,0.69-13.32,0.14-19.98,0.32 c0-23.86-0.04-47.7,0.02-71.55c-6.95-0.09-13.88-0.04-20.81-0.04C768.65,574.61,768.7,568.02,768.64,561.43L768.64,561.43z"></path> <path class="st0" d="M838.68,561.54c20.02-0.31,40.06-0.07,60.09-0.12c-0.06,6.59,0.19,13.19-0.15,19.77 c-13.39-0.2-26.79-0.05-40.18-0.07c0.09,5.44-0.24,10.9,0.23,16.34c6.79-0.24,13.58-0.07,20.37-0.11 c0.04,6.39-0.14,12.78,0.11,19.15c-6.9,0.44-13.81,0.08-20.69,0.2c-0.02,5.42-0.01,10.84-0.01,16.27 c13.39-0.02,26.8,0.11,40.19-0.06c0.33,6.57,0.08,13.16,0.14,19.73c-20.03-0.07-40.07,0.14-60.1-0.11 C838.78,622.21,838.77,591.86,838.68,561.54L838.68,561.54z"></path> <path class="st0" d="M914.88,561.37c0,30.44-0.08,60.96,0,91.4h19.8c0-9.08,0.08-18.16-0.08-27.23c13.93-0.23,27.86,0,41.71-0.08 v-64.09H914.88z M934.92,581.09c7.2,0.23,14.4,0,21.52,0.08v0.7c0,7.98,0.23,15.89-0.08,23.87c-7.12-0.31-14.16-0.16-21.29-0.08 h-0.31C934.68,597.45,934.45,589.23,934.92,581.09z"></path> <path class="st0" d="M401.08,669.71c20.37,0.19,40.75,0.07,61.12,0.06c0.07,9.56,0.04,19.14,0.02,28.7 c-6.54,0.01-13.08-0.08-19.63,0.06c-0.14-3-0.14-5.99-0.17-8.97c-7.23,0.05-14.46,0.07-21.68-0.01 c-0.14,17.29-0.12,34.58-0.01,51.86c7.23-0.08,14.47-0.04,21.71-0.02c-0.01-3-0.01-5.99,0.17-8.97c6.53,0.19,13.07,0.06,19.6,0.09 c0.01,9.56,0.05,19.13-0.02,28.69c-20.36,0.02-40.72-0.14-61.08,0.08c-0.6-18.82-0.08-37.69-0.26-56.53 C401,693.07,400.57,681.37,401.08,669.71L401.08,669.71z"></path> <path class="st0" d="M475.99,669.77c6.54,0.01,13.08,0.13,19.63-0.07c0.39,11.82,0.06,23.66,0.17,35.5 c2.87-0.01,5.74-0.02,8.6,0.05c5.83-11.73,11.43-23.59,17.1-35.4c6.87-0.11,13.75,0.04,20.62-0.09 c-6.49,15.12-14.83,29.45-21.64,44.46c6.33,12.37,12.34,24.9,18.56,37.33c1.49,3.2,3.46,6.22,4.33,9.69 c-7.1-0.06-14.21-0.09-21.31,0.01c-6.03-12.03-11.66-24.26-17.65-36.31c-2.88,0.02-5.75,0.02-8.62,0.06 c-0.08,12.1,0.19,24.2-0.14,36.29c-6.54-0.18-13.1-0.07-19.65-0.06C475.95,730.73,475.95,700.25,475.99,669.77L475.99,669.77z"></path> <path class="st0" d="M601.94,670.46c0-0.23-0.08-0.39-0.08-0.63c-15.65,0.08-31.38-0.23-47.03,0.16 c-2.74,30.44-5.87,60.81-8.76,91.25h0.39c6.34,0,12.83-0.16,19.17,0c1.02-7.12,1.49-14.24,2.11-21.44 c7.04-0.23,14.16,0,21.29-0.16c0,0.24,0.08,0.47,0.08,0.7c0.63,6.96,1.17,13.93,1.88,20.89h0.24c6.5-0.08,12.99-0.16,19.41,0.08 C608.04,731.03,604.83,700.67,601.94,670.46z M572.28,689.71c4.07-0.23,8.14-0.08,12.21-0.16c0,0.24,0.08,0.47,0.08,0.7 c0.86,9.86,1.88,19.8,2.66,29.66c-5.79-0.08-11.58,0-17.29,0h-0.39C570.4,709.82,571.5,699.8,572.28,689.71z"></path> <path class="st0" d="M683.24,669.91c-20.5-0.31-41.01,0-61.51-0.16v60.88h0.23c3.91-0.08,7.83-0.08,11.82,0 c-0.08,0.24-0.23,0.39-0.31,0.63c-5.4,9.94-10.88,19.88-16.28,29.82h0.7c7.28,0.24,14.56,0.08,21.76,0.08 c5.01-9.94,9.63-20.03,14.87-29.82c2.97-0.24,5.95-0.16,8.92,0.08v0.7c-0.23,9.7-0.08,19.41-0.08,29.11h0.31 c6.42,0,12.83-0.16,19.25,0.08c0.63-30.21,0-60.49,0.31-90.7V669.91z M641.53,689.63c7.28,0,14.56-0.16,21.83,0.08v0.63 c0,6.96-0.23,14.01,0.16,21.05c-7.28,0.23-14.56,0.08-21.75,0.08h-0.23C641.53,704.19,641.46,696.91,641.53,689.63z"></path> <path class="st0" d="M704.92,670.62c0.23,42.73-0.23,85.46,0.23,128.1h0.31c9.08-0.16,18.08,0.16,27.16-0.08 c-0.08-12.83,0-25.59-0.08-38.35h58.54v-89.76C762.36,670.54,733.64,670.38,704.92,670.62z M732.47,698.24 c10.33-0.39,20.66,0,30.91-0.16v0.7c0.08,11.27,0.08,22.62,0,33.96c-10.17-0.16-20.42,0.08-30.6-0.16h-0.23 C732.62,721.17,732.62,709.67,732.47,698.24z"></path> <path class="st0" d="M890.62,671.16v-0.63c-28.64-0.08-57.28,0-86-0.08c-0.08,42.73,0,85.46,0,128.26h86.08 C890.7,756.15,890.7,713.58,890.62,671.16z M832.09,698.24c10.33-0.39,20.58,0.08,30.91-0.16v0.63c0.16,24.1,0,48.28,0.08,72.39 h-30.91C832.17,746.84,832.32,722.5,832.09,698.24z"></path> <path class="st0" d="M902.72,670.63c28.73-0.33,57.46-0.05,86.19-0.14c0,9.22,0,18.43,0,27.65c-9.74,0-19.5,0.02-29.24-0.01 c0.01,33.53,0.01,67.06,0,100.57c-9.21-0.02-18.42,0.04-27.63-0.02c-0.09-33.53,0.2-67.07-0.15-100.6 c-9.66,0.18-19.32-0.05-28.98,0.12C902.64,689.01,902.98,679.82,902.72,670.63L902.72,670.63z"></path> <path class="st0" d="M1069.05,671.32c0-0.24-0.08-0.47-0.08-0.7c-21.99-0.31-43.98-0.08-65.97-0.16 c-4.15,42.73-8.37,85.53-12.44,128.26h27.7c0.86-10.09,1.8-20.11,2.74-30.21h29.82c0,0.23,0.08,0.47,0.08,0.7 c0.94,9.86,1.72,19.72,2.74,29.5h0.23c9.16-0.08,18.31,0,27.47,0v-1.1C1076.95,755.52,1072.96,713.42,1069.05,671.32z M1027.34,698.16c5.63,0,11.35,0.08,17.06-0.08c0,0.23,0.08,0.47,0.08,0.7c1.41,14.01,2.58,28.02,3.99,42.02 c-8.22,0.08-16.51,0-24.65,0.08h-0.39C1024.6,726.65,1026.08,712.4,1027.34,698.16z"></path> <path class="st0" d="M462.64,598.54c-0.16-12.13-0.08-24.26,0-36.39h-0.31c-20.42-0.31-40.77-0.08-61.12-0.16v91.4 c20.43-0.08,40.93,0.16,61.43-0.08c-0.08-12.21-0.08-24.34,0-36.55c-0.08-0.08-0.24-0.16-0.31-0.23 c-3.68-2.9-7.12-5.95-10.88-8.61c0.08-0.08,0.23-0.23,0.31-0.23C455.13,604.33,459.12,601.75,462.64,598.54z M420.93,632.9 c0-5.24,0.08-10.56-0.08-15.81c5.01-0.31,9.94-0.08,14.95-0.16c2.19,2.11,4.38,4.15,6.65,6.26l0.31,0.31v10.1h-21.83V632.9z M442.76,591.89c-2.35,2.19-4.62,4.38-6.96,6.57c-5.01-0.08-9.94,0.16-14.95-0.16v-0.7c0.24-5.24,0.08-10.49,0.08-15.73h21.83 V591.89z"></path> <path class="st0" d="M536.91,562.15c-20.42-0.31-40.77,0-61.2-0.16c-0.08,30.28,0,60.49,0,90.78v0.7 c20.42,0,40.85-0.16,61.27,0.08c0.39-30.44-0.08-60.88,0.23-91.4H536.91z M495.59,632.97c-0.16-17.06-0.08-34.12,0-51.18 c7.2,0.08,14.24,0,21.44,0.08h0.31v51.73c-7.28,0-14.48-0.08-21.76,0V632.97z"></path> <path class="st0" d="M560.49,562.22c16.92-0.45,33.86-0.07,50.8-0.19c0.02,30.47,0.01,60.94,0,91.42 c-6.57,0.02-13.14-0.07-19.71,0.06c-0.27-23.88-0.04-47.77-0.12-71.66c-4.5,0-9.01-0.01-13.51,0.02 c-2.9,23.86-5.9,47.7-8.82,71.57c-7.87-0.01-15.73-0.01-23.6,0c-0.02-6.63-0.02-13.25,0-19.86c2.31-0.01,4.62-0.01,6.95,0.02 C555.26,609.83,558.01,586.03,560.49,562.22L560.49,562.22z"></path> <path class="st0" d="M685.59,562c-20.42,0.08-40.85-0.08-61.27,0.16c0.08,30.13,0.08,60.34,0.08,90.54v0.7 c20.5,0.16,41.01,0,61.51,0.08V562H685.59z M644.27,632.9c-0.08-17.06-0.08-34.04,0-51.02h21.76v51.73h-21.76V632.9z"></path> <path class="st0" d="M698.98,562.08c6.59-0.08,13.19-0.12,19.79,0.04c-0.04,11.78-0.06,23.56,0.01,35.34 c7.27-0.02,14.52-0.05,21.78,0.01c0.06-11.76,0.11-23.53-0.04-35.29c6.61-0.32,13.24-0.08,19.85-0.14 c0.04,30.45,0.01,60.89,0.01,91.35c-6.61-0.07-13.24,0.15-19.85-0.14c0.15-11.99,0.02-24,0.07-36.01 c-7.29-0.01-14.58-0.01-21.87,0c0.01,12.04-0.01,24.07,0.01,36.11c-6.6,0.04-13.2,0.09-19.79-0.04 C699.02,622.91,698.99,592.49,698.98,562.08L698.98,562.08z"></path> <path class="st0" d="M768.94,562.11c20.5-0.18,41.01-0.04,61.51-0.07c0.01,6.59-0.01,13.19,0.01,19.79 c-6.95,0.07-13.89,0.02-20.82,0.02c0.04,23.76-0.18,47.53,0.11,71.29c-6.64,0.69-13.32,0.14-19.98,0.32 c0-23.86-0.04-47.7,0.02-71.55c-6.95-0.09-13.88-0.04-20.81-0.04C768.96,575.28,769,568.69,768.94,562.11L768.94,562.11z"></path> <path class="st0" d="M838.98,562.21c20.02-0.31,40.06-0.07,60.09-0.12c-0.06,6.59,0.19,13.19-0.15,19.77 c-13.39-0.2-26.79-0.05-40.18-0.07c0.09,5.44-0.24,10.9,0.23,16.34c6.79-0.24,13.58-0.07,20.37-0.11 c0.04,6.39-0.14,12.78,0.11,19.15c-6.9,0.44-13.81,0.08-20.69,0.2c-0.02,5.42-0.01,10.84-0.01,16.27 c13.39-0.02,26.8,0.11,40.19-0.06c0.33,6.57,0.08,13.16,0.14,19.73c-20.03-0.07-40.07,0.14-60.1-0.11 C839.08,622.88,839.07,592.54,838.98,562.21L838.98,562.21z"></path> <path class="st0" d="M976.63,562h-61.51v91.48h19.88c-0.08-9.08,0.08-18.16-0.08-27.31c13.93-0.16,27.78,0,41.71-0.08V562z M956.67,606.37c-7.2-0.23-14.4-0.08-21.6-0.08v-0.63c-0.08-7.9-0.31-15.96,0.16-23.95c7.04,0.31,14.09,0.08,21.21,0.16h0.31 C956.67,590.01,956.98,598.23,956.67,606.37z"></path> <path class="st0" d="M401.38,670.38c20.37,0.19,40.75,0.07,61.12,0.06c0.07,9.56,0.04,19.14,0.02,28.71 c-6.54,0.01-13.08-0.08-19.63,0.06c-0.14-3-0.14-5.99-0.17-8.97c-7.23,0.05-14.46,0.07-21.68-0.01 c-0.14,17.29-0.12,34.58-0.01,51.86c7.23-0.08,14.47-0.04,21.71-0.02c-0.01-3-0.01-5.99,0.17-8.97c6.53,0.19,13.07,0.06,19.6,0.09 c0.01,9.56,0.05,19.13-0.02,28.69c-20.36,0.02-40.72-0.14-61.08,0.08c-0.6-18.82-0.08-37.69-0.26-56.53 C401.3,693.74,400.87,682.05,401.38,670.38L401.38,670.38z"></path> <path class="st0" d="M476.29,670.44c6.54,0.01,13.08,0.13,19.63-0.07c0.39,11.82,0.06,23.66,0.17,35.5 c2.87-0.01,5.74-0.02,8.6,0.05c5.83-11.73,11.43-23.59,17.1-35.4c6.87-0.11,13.75,0.04,20.62-0.09 c-6.49,15.12-14.83,29.45-21.64,44.46c6.33,12.37,12.34,24.9,18.56,37.33c1.49,3.2,3.46,6.22,4.33,9.69 c-7.1-0.06-14.21-0.09-21.31,0.01c-6.03-12.03-11.66-24.26-17.65-36.31c-2.88,0.02-5.75,0.02-8.62,0.06 c-0.08,12.1,0.19,24.2-0.14,36.29c-6.54-0.18-13.1-0.07-19.65-0.06C476.25,731.41,476.25,700.93,476.29,670.44L476.29,670.44z"></path> <path class="st0" d="M602.17,670.46h-0.23c-15.57,0.16-31.22-0.16-46.8,0.16c-2.74,30.21-5.79,60.41-8.69,90.62 c0,0.23-0.08,0.39-0.08,0.63c6.49,0,13.07-0.08,19.56,0.08c1.02-7.12,1.49-14.32,2.11-21.44c6.96-0.31,14.09,0,21.05-0.16 c0.08,0,0.08,0,0.16,0c0.78,6.96,1.25,14.01,1.96,20.89c0,0.23,0.08,0.39,0.08,0.63c6.57,0,13.07-0.08,19.64,0.08 C608.35,731.42,605.07,700.98,602.17,670.46z M584.72,690.26c0.94,10.09,2.03,20.19,2.74,30.36c-5.87-0.08-11.74-0.08-17.61-0.08 c0-0.23,0-0.39,0.08-0.63c0.86-9.78,1.88-19.72,2.66-29.5c3.99-0.24,8.06-0.16,11.97-0.16 C584.64,690.26,584.64,690.26,584.72,690.26z"></path> <path class="st0" d="M683.56,670.62h-0.31c-20.42-0.39-40.77,0-61.2-0.16c-0.08,20.03,0,40.15-0.08,60.18v0.63h12.13 c-5.4,9.94-10.88,19.88-16.2,29.82c-0.16,0.24-0.23,0.47-0.39,0.7c7.51,0.16,15.03,0.08,22.46,0.08 c5.01-9.94,9.63-20.03,14.87-29.82c2.9-0.24,5.79-0.16,8.61,0.08h0.24c-0.16,9.63,0,19.41,0,29.11v0.63 c6.5,0.08,12.99-0.16,19.56,0.08C683.87,731.5,683.24,701.06,683.56,670.62z M641.77,712.09v-0.63c0.08-7.04,0-14.16,0.08-21.21 c7.2,0.08,14.32-0.08,21.52,0.08h0.31c0,7.28-0.24,14.48,0.08,21.68C656.48,712.33,649.13,712.09,641.77,712.09z"></path> <path class="st0" d="M791.39,671.16h-0.31c-28.72,0.08-57.2-0.16-85.85,0.16c0.23,42.41-0.24,84.91,0.23,127.4v0.7 c9.08-0.24,18.23,0.08,27.47-0.16c-0.16-12.76-0.08-25.51-0.08-38.27h58.54V671.16z M763.69,733.46 c-10.33-0.16-20.58,0.08-30.91-0.16v-0.7c0.08-11.27,0.16-22.46,0-33.65c10.25-0.39,20.35,0,30.6-0.16h0.31 C763.77,710.29,763.77,721.87,763.69,733.46z"></path> <path class="st0" d="M890.62,671.16c-28.56,0-57.05,0.08-85.69,0c-0.08,42.49,0,85.06,0,127.56v0.63h86 c0-42.73,0.08-85.46,0-128.18H890.62z M863.39,771.8h-30.91v-0.7c0-24.1,0.16-48.13-0.08-72.15c10.25-0.39,20.35,0,30.6-0.23h0.31 C863.47,723.05,863.31,747.46,863.39,771.8z"></path> <path class="st0" d="M903.02,671.31c28.73-0.33,57.46-0.05,86.19-0.14c0,9.22,0,18.43,0,27.65c-9.74,0-19.5,0.02-29.24-0.01 c0.01,33.53,0.01,67.06,0,100.57c-9.21-0.02-18.42,0.04-27.63-0.02c-0.09-33.53,0.2-67.07-0.15-100.6 c-9.66,0.18-19.32-0.05-28.98,0.12C902.94,689.69,903.28,680.49,903.02,671.31L903.02,671.31z"></path> <path class="st0" d="M1069.2,671.32c-0.08,0-0.08,0-0.16,0c-21.91-0.31-43.82-0.08-65.74-0.16c-4.15,42.49-8.3,85.06-12.36,127.56 c0,0.24-0.08,0.39-0.08,0.63c9.16,0,18.39,0.08,27.62,0c0.94-10.02,1.88-20.11,2.74-30.13h29.89c1.02,9.78,1.8,19.64,2.74,29.5 c0,0.24,0.08,0.47,0.08,0.7c9.23-0.08,18.47,0,27.62-0.08v-1.1C1077.26,755.99,1073.19,713.66,1069.2,671.32z M1044.71,698.79 c1.49,14.24,2.66,28.48,4.07,42.73c-8.37,0-16.75,0-25.04,0.08c0-0.23,0-0.47,0.08-0.7c1.17-14.01,2.58-28.02,3.83-42.02 c5.56-0.08,11.19,0.08,16.82-0.08H1044.71z"></path> </g> <g> <g> <path class="st0" d="M270.04,26h1.36c-1.2,4.39-2.25,8.94-4.72,12.78c-20.96,32.67-42.18,65.15-63.27,97.71 c-13.94,21.26-27,43.13-40.34,64.78c3.31,8.79,6.87,17.48,10.5,26.13c-2.08,1.93-3.93,5.27-7.12,4.92 c-3.29-0.75-6.05-2.93-8.98-4.53c0.27,2.52,0.29,5.21,1.67,7.43c4.95,8.91,9.65,18.03,15.65,26.24 c6.42,8.78,11.65,18.56,14.88,29.1c0.66,2.44,2.48,4.19,4.46,5.53c7.37,5.17,12.92,12.57,17.95,20.08 c3.9,5.91,8.43,11.35,13.32,16.39c2.9,3.25,7.51,3.27,10.96,5.57c3.83,2.9,6.74,6.95,10.64,9.74c2.75,1.19,5.66,2,8.35,3.36 c1.37-1.54,2.55-3.27,4.06-4.67c1.29-1.22,3.08-0.41,4.6-0.39c-0.97,2.92-1.17,6.61-3.66,8.67c-2.22,0.95-4.71,0.44-7.04,0.52 c-1.27,1.54-2.53,3.14-4.23,4.19c0.95-2.59,2.23-5.03,3.46-7.49c-3.43-0.69-6.84-1.34-10.25-2.09c0.97,2.24,2.27,4.61,1.76,7.17 c-0.34,1.99-1.93,3.32-3.16,4.74c1.13-0.47,2.27-0.92,3.41-1.36c-2.52,10.57-8.94,20.49-7.11,31.84 c1.46-0.43,2.91-0.91,4.34-1.42c-5.87,10.6-12.1,22.3-10.23,35.02c0.42-0.05,1.25-0.16,1.66-0.22 c-0.05,4.89,0.34,9.78,0.24,14.67c-0.44,4.13-5.29,4.38-7.57,7.01c-8.59,9.3-17.42,19.17-21.03,31.86 c2.09-3.17,3.5-6.82,5.97-9.72c2.34-2.86,5.2-5.14,8.1-7.33c-0.34,1.85-0.71,3.72-1.1,5.57c3.83-6.82,10.2-11.31,16.19-15.84 c1.36-0.73,1.34-2.41,1.67-3.75c10.54-7.5,22.63-12.02,34.14-17.55c-0.23,1.02-0.69,3.06-0.92,4.08 c7.06-5.64,15.44-9.13,23.96-11.55c0.73-0.01,2.17-0.05,2.89-0.07c-1.3,1.4-2.69,2.75-4.43,3.53 c-13.54,6.36-27.17,12.55-40.66,19.06c-5.47,2.58-10.59,5.91-15.62,9.33c-1.51,0.81-1.9,2.6-2.42,4.15 c1.79-1.06,3.54-2.2,5.28-3.34c0.04,0.68,0.1,2.03,0.14,2.72c6.94-9.08,18.38-11.31,28-15.94c4.73-2.1,8.76-5.78,13.81-7.08 c4.76-1.51,8.39-5.36,13.02-7.19c2.7-0.8,3.49-3.9,5.37-5.74c2.09-2.44,5.31-2.85,8.14-3.76c-1.01-0.35-2.05-0.64-3.1-0.34 c-5.86,1.25-11.71,2.49-17.57,3.74c1.99-2.53,3.64-5.37,5.77-7.78c2.18-2.38,5.51-2.33,8.37-3.05c3.33-0.78,5.84-3.33,8.35-5.56 c-5.58,0.71-7.73-5.48-11.95-7.85c-2.96-2.04-6.61-2.03-9.99-1.58c2.11-2.98,4.41-5.94,7.49-7.88 c5.68-3.73,12.52-4.46,19.05-5.08c-0.52-1.56-1.03-3.12-1.53-4.68c2.53,1.5,5,3.09,7.57,4.51c-0.6-1.82-0.92-3.96-2.54-5.12 c-3.97-3.12-8.78-4.87-12.67-8.12c-3.64,0.79-7.55,1.99-9.8,5.32c-2.28,2.98-2.44,6.92-3.66,10.36 c-2.66,4.99-7.45,8.21-10.46,12.95c-2.69,3.87-2.57,9.61-7.14,11.97c0.04-1.5,0.09-2.98,0.16-4.46c-1.87,2.66-3.6,5.48-6.01,7.65 c1.56-5.5,6.03-9.79,6.09-15.79c3.88-5.67,8.34-10.89,12.59-16.27c4.37-5.74,10.2-9.94,15.51-14.64 c3.31,3.53,8.19,4.46,12.67,5.24c5.98,0.08,11.99,0.64,17.77,2.38c2.94,1.06,4.44,4.15,6.84,6.02c2.56,2.1,5.9,2.46,8.79,3.83 c3.99,1.83,6.72,5.83,11,7.1c4.64,1.39,9.37,2.41,14.04,3.69c-1.73,0.81-3.49,1.54-5.15,2.51c0.14,0.28,0.42,0.86,0.55,1.15 c5.14,1.12,10.35,1.82,15.53,2.75c12.55,1.14,24.22,6.78,36.65,8.7c5.63,0.66,11.39,0.63,16.9,2.15 c3.49,0.93,5.36,4.36,7.81,6.79c4.55,4.74,10.79,7.54,17.19,7.98c1.86,0.01,3.54,0.85,4.8,2.27c-3.81,0.6-7.68,0.31-11.51,0.36 c2.28,2.48,4.69,4.81,6.98,7.26c1.44,0.79,0.07,2.16-0.2,3.2c-3.98-1.49-7.98-2.92-11.97-4.38c-0.01,1.51-0.02,3.04-0.02,4.56 c-3.9-2.16-8.03-4.31-10.76-8.05c-1.83-2.47-3.66-5.1-6.4-6.53c-3.64-2.11-8.01-1.8-11.91-0.82c-10.07,2.39-20.78,2.8-30.76-0.28 c-2.09-0.61-4.14-1.56-6.34-1.62c-11.21,0.07-22.46,0.9-33.64-0.33c-9.66-0.73-17.87,5.46-25.84,10.23 c3.53,4.03,7.55,8.25,8.28,13.93c0.72,4.92-2.19,9.32-2.48,14.16c-1.16,10.22,3.46,19.77,8.01,28.47 c1.35,2.73,3.04,5.37,3.65,8.41c0.34,2.93-2.48,4.57-4.34,6.15c3.14,12.05,6.51,24.04,9.07,36.24 c3.93,18.67,9.77,36.9,12.51,55.84c1.56,9.83,2.97,19.72,5.32,29.4c2.67,11.19,3.35,22.73,4.22,34.19 c0.67,13.74,4.72,26.99,5.49,40.73c0.9,6.63-0.89,13.29,0.1,19.91c1.47,12.18,7.68,22.88,11.11,34.47 c1.12,2.98,0.22,6.3-1.6,8.76c-3.28,4.44-7.39,8.1-11.37,11.82c-1.1,1.04-2.53,2.56-1.7,4.26c1.7,3.94,4.39,7.37,5.53,11.58 c2.08,7.25,3.97,14.56,6.02,21.82c-2.48-0.44-4.9-1.12-7.34-1.74c-2.77-1-4.49,2.43-7.14,2.55c-0.6-1.71-0.71-3.68-2.08-4.97 c-1.1,3.54-2.06,7.12-3.06,10.69h-0.07c-1.75-1.1-3.17-3.25-5.35-3.32c-1.7,0.97-2.8,3.6-5.05,2.88 c-1.18-1.86-1.02-4.26-0.79-6.36c0.45-2.53,3.24-2.73,5.17-3.26c0.55-2.59,1.09-5.19,1.6-7.77c-2.42-0.37-4.84-0.73-7.25-1.12 c-0.58-1.82-0.91-4.12-2.77-5.02c-2.95-0.92-6.08-0.93-9.01-1.97c1.91,0.02,3.82,0.2,5.72,0.4c-0.32-0.75-0.93-2.24-1.25-2.98 c1.7-0.18,3.41-0.32,5.11-0.47c-5.45-1.41-11.03-2.18-16.46-3.62c-1.31-0.39-1.92-1.87-2.86-2.76c-1.78,0.61-3.52,1.4-5.39,1.68 c-1.36-0.46-1.89-1.97-2.71-3.04c-0.97,1.37-1.8,3.3-3.67,3.44c-10.51,1.11-21.32,0.8-31.48,4.27 c-9.14,2.91-18.71,3.86-28.21,4.34c-3.06,0.11-6.16,0.5-9.18-0.11c3.12-0.77,6.32-0.97,9.48-1.34 c-7.01-0.95-14.1-0.12-21.13-0.55c-0.43-0.18-1.28-0.55-1.7-0.74c2.1-1.51,4.35-2.8,6.67-3.92c0.53,0.36,1.59,1.09,2.11,1.45 c5.79,0.21,11.6,0.01,17.39,0.07c0.39-2.21,0.79-4.43,1.63-6.49c0.61,1.64,1.14,3.33,1.66,5.02c4.14-2.46,9.08-4.14,11.79-8.51 c-2.6-2.04-4.69-5.02-5.08-8.45c-0.26-3.14-0.12-6.29-0.14-9.44c-1.36-0.42-2.71-0.83-4.06-1.22c2.77-5.77,4.03-12.13,5.08-18.44 c-1.46,0.54-2.91,1.13-4.38,1.64c2.75-5.2,9.19-7.79,9.88-14.17c0.92-3.29-0.89-6.33-1.58-9.44c0.87-6.68,2.3-13.3,4.25-19.72 c2-7.08,1.39-14.58,2.86-21.75c2.6-8.43,6.82-16.31,8.81-24.94c-0.32-2.63-2.65-4.42-4.22-6.31c-5.43,3.2-8.59,9.1-13.45,13.04 c3.63-5.5,7.45-10.86,11.06-16.38c-2.93,1.15-5.95,2.01-8.92,2.99c-2.09,0.56-2.39,3.05-2.63,4.9c-1.65,13.6-3.36,27.2-5.2,40.77 c-0.34,2.5-0.89,4.96-1.57,7.38c-2.11,7.44-2.38,15.25-3.94,22.81c-1.03,5.25-2.9,10.27-4.35,15.4c-0.55,3.5-0.12,7.12-0.93,10.6 c-2.15,10.32-8.53,18.79-13.3,27.88c-4.39-4.15-9.47-7.88-12.07-13.62c-1.99-3.79-2.96-8.47-6.56-11.06 c-3.4-2.75-6.06-6.35-9.47-9.09c-6.7-4.43-14.7-6.59-20.83-11.95c4.6-1.14,9.41-2.25,14.12-1.18c4.56,0.92,7.86,5.07,12.54,5.66 c3.45,0.21,7.31-1.6,8.7-5.06c0.73-3.3,0.31-6.87,1.78-9.98c2.38-5.44,5.95-10.38,7.23-16.3c-5.46,3.31-7.37,10.19-11.61,14.76 c-2.15,2.07-5.19,0.8-7.46-0.33c3.19-9.57,6.45-19.11,9.56-28.69c-1.5,0.65-2.98,1.35-4.49,2.02 c4.9-8.52,10.93-16.46,14.26-25.85c-0.88,0.92-1.76,1.85-2.63,2.79c-0.64-1.13-1.23-2.3-1.18-3.64 c-0.46-9.79-0.91-19.59-1.32-29.38c-0.06-1.74-0.26-3.47-0.78-5.13c-2.32,3.17-4.34,6.56-6.52,9.83 c-0.44-10.82-0.94-21.62-1.35-32.44c0.49-0.11,1.47-0.35,1.97-0.46c3.79,13.22,7.41,26.49,11.21,39.71 c1.5-1.21,3.51-2.08,4.26-4.03c-0.91-3.57-2.7-6.79-3.9-10.24c-1.51-3.86-2.18-8-3.55-11.9c-2.09-2.84-4.75-5.45-5.47-9.11 c-1.01-3.22,1.21-6.22,1-9.43c-0.09-4.62-4.15-7.77-4.51-12.31c-0.78-6.27,0.9-12.44,2.24-18.49c1.2-8.86,3.31-17.61,6.49-25.94 c1.12,0.63,2.27,1.24,3.42,1.84c-1.8-3.74-5.9-3.63-9.37-3.67c2.69-2.43,5.78-4.32,8.64-6.52c-2.25-0.91-4.51-1.77-6.77-2.61 c0.64-0.69,1.31-1.37,1.94-2.06c-0.9-0.98-1.78-1.98-2.63-3c2.73,0.01,5.5,0.52,7.45,2.69c2.18,2.35,5.32,0.78,7.62-0.46 c-3.45-4.33-6.54-9.03-10.54-12.82c-2.49-2.39-5.97-2.87-9.21-2.64c-1.44-1.24-2.85-2.51-4.26-3.76 c-0.54,2.46-1.14,4.93-1.21,7.48c-0.31,8.15-0.55,16.3-0.66,24.44c-0.01,2.82-0.92,5.82-3.24,7.5c-3.21,2.5-7.76,1.67-10.92-0.48 c-4.67-3.15-8.31-8.48-8.63-14.38c0.14-5.51,2.18-10.7,2.74-16.15c-0.88-3.61-3.61-7.3-1.62-11.11 c3.6-7.12,10.48-11.9,17.61-14.56c10.15-3.9,18.77-11.1,26.35-18.99c3.78-4.04,7.96-7.66,12.44-10.82 c-0.41,3.19-1.64,6.16-2.63,9.18c5.61,0.89,11.29-1.12,15.49-5.03c8.05-7.19,16.83-14.83,20.23-25.69 c-4.63,3.79-8.07,9.02-13.12,12.27c-4.42,2.79-9.11,5.13-13.93,7.1c-4.13,1.94-8.79-1.57-12.85,0.83 c-3.02,1.57-3.89,5.86-7.22,6.85c-3.74,0.22-7.96-2.12-11.31,0.64c-3.06,2.82-7.27,3.42-10.6,5.77c-2.47,1.53-4.2,4-6.58,5.63 c-0.11,1.18-0.17,2.38-0.24,3.57l-0.8-0.84c-3.11,2.97-5.5,6.9-9.28,9.03c0.25-5.14,1.21-10.19,1.78-15.29 c-4.05-0.75-7.95-2.14-11.98-3.01c-6.9-0.77-12.74-6.52-14.78-13.28c-1.27-5.55,4.13-9,6.88-12.89 c-1.98,0.37-3.95,0.77-5.92,1.18c-0.34-1.32-0.53-2.71-1.16-3.92c-1.8-2.1-4.78-0.04-6.92-1.14c-1.7-1.23-1.41-3.64-0.99-5.45 c0.84-3.52,1.62-7.06,2.62-10.53c1.73-0.29,3.77,0.35,5.22-0.96c2.28-2.1,3.32-5.23,5.37-7.55c5.58-6.29,11.88-11.99,19.15-16.06 c-0.4,1.44-0.78,2.89-1,4.39c4.45-3.45,7.77-8.23,12.29-11.59c2.69-1.86,4.75-4.87,4.8-8.33c0.42-3.92-1.32-7.53-1.88-11.32 c-0.49-2.89-0.88-6.13-3.11-8.2c-2.87-2.69-5.99-5.08-8.69-7.96c-12.85-13.05-21.19-29.89-28.87-46.56 c-3.5-7.26-6.75-14.71-11.28-21.36c-3.5-5.31-7.44-10.41-9.74-16.46c-1.72-4.45-3.15-9.04-5.34-13.26 c-4.38-8.44-6.84-17.77-10.83-26.39c-2.77,1.79-4.31,5.35-7.38,6.5c-4.35-2.03-6-7.43-8.9-11.11l-0.23,0.91v-1.15 c3.99-2.82,8.09-5.47,12.09-8.24c-1.76-0.76-3.72-1.21-5.21-2.5c-0.88-1.75,0.48-3.6,0.92-5.29c2.35,0.06,4.71,0.09,7.03-0.44 c-1.85-1.34-3.78-2.56-5.65-3.86c0.88-0.91,1.42-2.36,2.68-2.8c1.85-0.09,3.61,0.68,5.41,0.99c-1.58-1.69-3.29-3.23-5.06-4.69 c1.23-1.03,2.47-2.06,3.69-3.1c1.29,0.61,2.49,2.73,4.01,1.66c-0.82-2.15-2.66-3.63-3.54-5.73c-2.39-5.41-4.59-10.91-7.1-16.27 c2-3.79,4.23-7.43,6.35-11.14c5.5,4.9,10.95,9.88,16.41,14.83c24.87-36.27,49.69-72.58,74.68-108.76 c11.16-16.07,22.47-32.03,33.56-48.14C263.31,28.34,266.57,26.47,270.04,26z M209.29,410.02c2.11,0.29,4.08-0.94,6.14-1.2 c-1.42,3.73-5.6,4.83-8.83,6.3c1.66,0.87,3.23,1.97,5.03,2.51c3.09,0.22,5.95-2.48,6.68-5.52c-0.1-3.53-1.21-6.95-1.8-10.42 C214.05,404.41,211.74,407.28,209.29,410.02z M303.77,428.63c-7.81,6.13-15.65,12.25-23.47,18.35c-0.49,0.38-2.45,2.03-0.46,1.99 c11.02-5.87,21.94-13.15,29.27-23.75C307,425.73,305.46,427.35,303.77,428.63z M229.67,467.16c3.77-0.97,6.98-3.75,8.17-7.68 C234.85,461.7,232.26,464.46,229.67,467.16z M297.27,459.66c-2.57,9.49-3.91,19.48-8.23,28.36c-3.7,7.8-9.19,14.42-13.54,21.8 l1.12-0.5c4.59-5.45,8.5-11.51,13.08-16.97c0.58,3.51,0.21,7.32-1.95,10.23c-3.64,4.83-8.81,8.1-12.28,13.09 c-2.08,2.84-3.38,6.29-3.55,9.88c-0.29,6.82-3.06,13.22-3.31,20.05c-0.24,6.36-0.1,12.74,0.02,19.11 c3.03-3.22,4.51-7.97,8.11-10.52c-0.55,2.18-2.18,3.77-3.16,5.73c-3.44,6.21-4.22,13.51-4.32,20.56 c-0.3,13.84-2.68,27.86,0.38,41.55c0.54-0.71,1.62-2.13,2.16-2.83c0.25,8.64-0.15,17.3,0.22,25.94c1.42-1.89,1.9-4.29,2.69-6.48 c2.18,0.27,3.49-0.86,3.38-3.2c-0.77-1.29-2.32-2.7-1.44-4.34c3.26-6.24,8.18-11.41,11.15-17.8c-2.13-1.93-5.55-0.7-7.47-3.01 c-2.12-2.59,0.15-6.2-1.75-8.91c-1.99-4.37,1.06-8.57,2.82-12.37c0.15-2.84-0.64-5.59-0.66-8.41c0.79-1.95,2.26-3.57,2.69-5.68 c0.81-2.17-0.51-4.22-0.76-6.35c2.57-6.72,6.38-13.71,4.85-21.21c-0.62-2.47,0.76-4.65,2.53-6.13c0.09-3.68,0.38-7.36,0.72-11.03 c-0.44-0.29-1.32-0.86-1.76-1.15c1.68-1.89,3.75-3.62,4.48-6.19c1.01-3.05-0.04-6.59,1.7-9.39c1.68-3.27,4.87-5.33,6.55-8.58 c1.31-3.37,1.43-7.21,3.45-10.28c1.04-1.78,3.15-2.38,4.34-3.97c1.36-8.2,1.14-16.65-1.2-24.63c-0.78-1.64-0.12-4.82-2.54-4.92 c0.84,6.42,3.23,13.62-0.36,19.6c-8.57,14.32-16.54,29.02-25.19,43.29c-0.39-0.09-1.17-0.28-1.57-0.38 c6.22-8.96,11.63-18.87,13.38-29.93c1.7-11.59,4.67-22.91,6.77-34.42C298.42,459.37,297.65,459.57,297.27,459.66z M241.92,680.04 c2.8,15.76,8.01,30.92,12.82,46.1c0.18-0.35,0.54-1.07,0.72-1.43c-1.02-6.92-4.99-12.83-6.2-19.68 c-1.51-7.34-3.79-14.64-3.59-22.24c0-5.25,2.8-10.18,1.47-15.48C243.12,670,240.83,675.09,241.92,680.04z"></path> </g> <path class="st0" d="M264.51,283.86c2.72-3.69,7.42-4.6,11.61-4.77c5.13-0.09,10.61,0.85,14.75,4.25 c-4.04-0.24-8.04-1.09-12.09-1.12C273.97,282.08,269.27,283.36,264.51,283.86z"></path> <g> <path class="st0" d="M251.21,291.05c11.34-1.86,22.65-3.93,33.98-5.79c2.59,0.05,5.15,1.28,7.33,2.7 c3.72,3.32,4.68,8.66,6.08,13.31c1.95-0.68,3.87-1.46,5.74-2.38c-1.43-1.53-3.17-2.67-4.81-3.93c1.44-0.02,2.89-0.03,4.34-0.03 c-0.77-1.53-1.52-3.07-2.18-4.65c2.57,0.58,4.92,1.94,7.14,3.39c-1.5,1.87-3.3,4.12-2.05,6.7c1.81,4.92,0.37,10.5,2.66,15.27 c0.67,1.59,1.55,3.09,2.1,4.73c0.48,2.16-1.95,2.55-3.24,3.35c-1.8,4.52-3.66,9.02-5.29,13.62c-0.75,2.09-1.74,4.15-3.22,5.78 c-2.02,2.45-5.43,2.09-8.15,3.01c0.94,4.93,1.53,9.93,2.56,14.84c0.47,2.28,2.28,3.78,3.73,5.41c-4.09-1.57-8.37-2.84-12.77-2.48 c-2.53,0.34-5.39-1.14-5.78-3.97c-1.98-9.55-1.12-19.41-2.07-29.08c-0.28-1.74-1.42-3.15-2.18-4.68 c-2.57,2.6-6.18,4.18-7.86,7.66c-1.55,2.88-1.73,6.26-1.93,9.47c-1.69,0.12-3.35,0.24-5.03,0.36c0.27-1.98,0.54-3.95,0.82-5.91 c-5-1.44-10.17-2.43-14.91-4.69c-3.37-1.61-6.64-3.44-9.91-5.23c-2.47-1.21-2.79-4.92-1.54-7.16c2.69-3.24,6.45-5.24,9.27-8.34 c1.22-2.33,2.13-4.83,3.28-7.2c-0.75-0.62-1.5-1.23-2.26-1.85c2.16-2.63,4.97-4.48,7.52-6.62 C254.46,295,251.93,292.7,251.21,291.05z M264.35,293.58c-2.34,1.52-3.56,4.21-4.77,6.69c5.76-0.57,11.49-1.49,17.23-2.3 c-0.04-0.18-0.1-0.53-0.14-0.71c-4.56,0.73-9.17,1.13-13.74,1.68l-0.2-1.65c3.1-1.95,6.61-3.07,9.81-4.83 C269.79,292.21,266.78,291.94,264.35,293.58z M252.2,303.28c0.3,1.16,0.61,2.34,0.92,3.51c2.54-1.5,5.27-2.72,7.55-4.65 C257.81,302.17,254.98,302.66,252.2,303.28z"></path> </g> <path class="st0" d="M236.09,315.9c-0.16-3.85,2.1-7.17,5.45-8.61C242.83,311.58,238.46,313.46,236.09,315.9z"></path> <path class="st0" d="M277.95,367.77c0.55-0.17,1.13-0.47,1.72-0.23c4.34,1.07,8.71,2,12.99,3.31c-4.29,1.55-8.26,4.1-12.67,5.2 c-0.83-2.13,1.46-4.1,2.02-6.11C280.64,369.27,279.28,368.56,277.95,367.77z"></path> <path class="st0" d="M270.49,370.94c0.34,0.01,0.99,0.02,1.31,0.03c3.64,5.34,4.43,12.16,3.46,18.5c-0.5,3.03-2.41,5.75-5.1,7.04 c-6.15,2.97-13.31,2.25-19.41,5.38c-4.54,2.11-8.21,5.85-10.82,10.22c1.29-7.66,2.53-15.33,4-22.96 c1.71-9.49,11.41-16.33,20.48-14.9c2,0.31,3.93,1.01,5.88,1.57C270.37,374.2,270.43,372.57,270.49,370.94z"></path> <path class="st0" d="M245.97,428.72c0.22,0.13,0.65,0.4,0.87,0.52c-0.68,1.86-0.49,3.99-1.34,5.76c-0.68,1.39-2.14-0.09-3.02-0.36 C243.61,432.64,244.79,430.68,245.97,428.72z"></path> <path class="st0" d="M213.4,484.33c4.27-3.55,9.07-6.68,14.51-7.75c-1.76,1.41-3.55,2.75-5.19,4.32c1.48-0.31,2.94-0.72,4.42-1.06 c-1.1,2.76-3.18,5.68-6.37,5.58c-2.7-0.23-5.22,0.62-7.72,1.56C212.89,486.07,212.64,485.03,213.4,484.33z"></path> </g> </g> </svg> 