<?xml version="1.0" encoding="UTF-8"?> <svg xmlns="http://www.w3.org/2000/svg" id="_Слой_1" data-name="Слой_1" version="1.1" viewBox="0 0 1080 1080"><defs><style> .st0, .st1 { fill: #1f4984; } .st1 { fill-rule: evenodd; } </style></defs><path class="st0" d="M221.85,855.86c0,9.17-3.14,16.37-9.38,21.64-6.19,5.22-15.13,8.12-26.78,8.7v7.51h-14.74v-7.62c-11.73-.66-20.72-3.59-26.99-8.8-6.19-5.27-9.31-12.42-9.31-21.46s3.11-16.21,9.31-21.35c6.27-5.22,15.26-8.17,26.99-8.91v-7.12h14.74v7.01c11.68.66,20.59,3.64,26.78,8.91,6.27,5.3,9.38,12.44,9.38,21.48ZM185.68,873.66c6.99-.66,12.21-2.43,15.63-5.32,3.43-2.95,5.14-7.14,5.14-12.55,0-10.54-6.91-16.42-20.77-17.61v35.48ZM150.17,855.86c0,10.41,6.93,16.34,20.77,17.79v-35.48c-7.06.66-12.28,2.43-15.71,5.35-3.37,2.82-5.06,6.93-5.06,12.34ZM279.74,875.82h-32.13l-6.12,14.84h-16.42l30.84-69.2h15.82l30.95,69.2h-16.82l-6.12-14.84ZM274.7,863.67l-10.97-26.49-10.97,26.49h21.93ZM383.81,877.61v27.39h-14.84v-14.34h-48.85v14.34h-14.84l.11-27.39h2.77c4.17-.13,7.09-3.16,8.8-9.09,1.71-5.93,2.77-14.39,3.16-25.41l.79-21.64h53.2v56.15h9.7ZM334.28,844.58c-.32,8.22-1.03,15.16-2.08,20.77-1.05,5.54-2.66,9.62-4.85,12.26h30.95v-43.1h-23.72l-.29,10.07ZM458.07,821.46v69.2h-16.03v-28.36h-31.45v28.36h-16.03v-69.2h16.03v27.28h31.45v-27.28h16.03ZM533.36,821.46c6.12,0,11.44,1.03,15.92,3.06,4.53,2.06,8.04,4.96,10.49,8.7,2.45,3.74,3.66,8.2,3.66,13.34s-1.21,9.52-3.66,13.34c-2.43,3.74-5.93,6.67-10.49,8.7-4.48,1.98-9.78,2.95-15.92,2.95h-13.94v19.09h-16.03v-69.2h29.97v.03ZM532.46,858.53c4.8,0,8.46-1.03,10.97-3.06,2.5-2.11,3.74-5.09,3.74-8.91s-1.27-6.85-3.74-8.91c-2.5-2.11-6.17-3.16-10.97-3.16h-13.05v24.01h13.05v.03ZM607.96,891.85c-7.17,0-13.68-1.56-19.48-4.64-5.75-3.11-10.25-7.35-13.55-12.76-3.22-5.48-4.85-11.6-4.85-18.4s1.61-12.89,4.85-18.29c3.3-5.48,7.8-9.75,13.55-12.86,5.8-3.11,12.28-4.64,19.48-4.64s13.65,1.56,19.38,4.64c5.72,3.08,10.25,7.38,13.55,12.86,3.3,5.4,4.96,11.49,4.96,18.29s-1.63,12.92-4.96,18.4c-3.3,5.4-7.8,9.65-13.55,12.76-5.75,3.11-12.18,4.64-19.38,4.64ZM607.96,878.19c4.09,0,7.78-.92,11.07-2.77,3.3-1.9,5.85-4.53,7.7-7.91,1.9-3.37,2.87-7.17,2.87-11.47s-.95-8.12-2.87-11.47c-1.85-3.37-4.43-5.96-7.7-7.8-3.3-1.9-6.99-2.87-11.07-2.87s-7.78.95-11.07,2.87c-3.3,1.85-5.9,4.45-7.8,7.8-1.85,3.37-2.77,7.17-2.77,11.47s.92,8.12,2.77,11.47c1.9,3.37,4.51,6.01,7.8,7.91,3.3,1.85,6.99,2.77,11.07,2.77ZM690.89,891.85c-7.06,0-13.44-1.53-19.19-4.53-5.67-3.11-10.15-7.35-13.44-12.76-3.22-5.48-4.85-11.63-4.85-18.48s1.61-13,4.85-18.4c3.3-5.48,7.78-9.73,13.44-12.76,5.75-3.11,12.15-4.64,19.27-4.64,6.01,0,11.41,1.05,16.21,3.16,4.88,2.11,8.96,5.14,12.26,9.09l-10.28,9.49c-4.69-5.4-10.49-8.12-17.4-8.12-4.27,0-8.12.95-11.47,2.87-3.37,1.85-6.01,4.45-7.91,7.8-1.85,3.37-2.77,7.17-2.77,11.47s.92,8.12,2.77,11.47c1.92,3.37,4.56,6.01,7.91,7.91,3.37,1.85,7.17,2.77,11.47,2.77,6.93,0,12.73-2.74,17.4-8.2l10.28,9.49c-3.3,4.01-7.38,7.09-12.26,9.2-4.88,2.11-10.28,3.16-16.29,3.16ZM761.17,891.85c-7.06,0-13.44-1.53-19.19-4.53-5.67-3.11-10.15-7.35-13.44-12.76-3.22-5.48-4.85-11.63-4.85-18.48s1.61-13,4.85-18.4c3.3-5.48,7.78-9.73,13.44-12.76,5.75-3.11,12.15-4.64,19.27-4.64,6.01,0,11.41,1.05,16.21,3.16,4.88,2.11,8.96,5.14,12.26,9.09l-10.28,9.49c-4.69-5.4-10.49-8.12-17.4-8.12-4.27,0-8.12.95-11.47,2.87-3.37,1.85-6.01,4.45-7.91,7.8-1.85,3.37-2.77,7.17-2.77,11.47s.92,8.12,2.77,11.47c1.92,3.37,4.56,6.01,7.91,7.91,3.37,1.85,7.17,2.77,11.47,2.77,6.93,0,12.73-2.74,17.4-8.2l10.28,9.49c-3.3,4.01-7.38,7.09-12.26,9.2-4.88,2.11-10.28,3.16-16.29,3.16ZM800.18,821.46h15.92v45.08l33.03-45.08h15.03v69.2h-15.82v-44.97l-33.03,44.97h-15.13v-69.2h0ZM881.37,821.46h15.92v45.08l33.03-45.08h15.03v69.2h-15.82v-44.97l-33.03,44.97h-15.13v-69.2h0Z"></path><g><g><path class="st1" d="M565.48,186.19c-2.73,2.56-8.18,6.48-16.87,7.81,1.32-8.7,5.23-14.13,7.8-16.86.77-.82.19-2.15-.93-2.15h-26.15c-1.12,0-1.7,1.33-.93,2.15,2.57,2.73,6.48,8.16,7.8,16.87-8.7-1.32-14.14-5.23-16.87-7.8-.82-.77-2.15-.19-2.15.93v26.15c0,1.12,1.33,1.7,2.15.93,2.73-2.57,8.16-6.48,16.86-7.8-1.34,8.69-5.25,14.14-7.81,16.87-.76.82-.18,2.14.94,2.14h26.19c1.12,0,1.7-1.33.94-2.14-2.56-2.73-6.47-8.17-7.81-16.86,8.68,1.34,14.13,5.25,16.86,7.81.82.76,2.14.18,2.14-.94v-26.19c0-1.12-1.33-1.7-2.14-.94Z"></path><g><g><path class="st0" d="M803.93,433.98c-6.7,3.39-45.92,21.77-96.17,14.97.51-2.39.95-4.82,1.33-7.24,33.45-4.01,60.63-9.68,77.95-19.33,19.76-11,28.38-37.24,18.43-56.76-.27-.49-.98-.57-1.33-.16-5.48,6.29-39.82,43.67-93.95,55.27-.14-2.79-.41-5.61-.76-8.38,26.29-14.9,51.96-32.09,64.16-47.79,18.49-23.74,16.78-54.02-.81-69.47-.19-.16-.43-.22-.65-.19-.24.03-.46.16-.57.38-5.56,9.16-57.62,93.3-114.76,129.62-.7.43-1.41.89-2.11,1.3-1.63,1-1.82,3.12-.44,4.39,6.59,5.96,10.68,14.28,10.68,23.5,0,16.05-12.36,29.38-28.71,32.28-8.29,1.6-20.3,1.14-31.82-2.66-.51-.16-1.06.16-1.06.7v50.8c0,.82,1.25,1.03,1.54.24,6.99-18.54,27.95-22.5,37.13-22.5,3.01,18.05,8.16,33.26,14.83,42.53,5.36-9.05,17.62-15.13,18.13-15.32-6.91-8-13.09-18.08-15.48-30.06,2.33-.81,4.63-1.74,6.83-2.82,6.88,11.41,16.04,21.9,24.8,28.92,13.88-4.01,26.29-.84,28.54,11.2,11,.19,20.11-4.66,25.13-13.34.27-.46-.05-1.06-.62-1.11-11.65-.92-47.43-11.19-62.66-36.19,1.73-1.6,3.44-3.28,5.04-5.04,15.94,12.14,38.49,22.88,54.62,25.05,18.89,2.58,40.28-3.47,40.79-25.43,0-.43-.38-.81-.84-.78-6.72.4-51.18,2.33-82.83-15.83,1.11-2.08,2.11-4.23,3.06-6.4,0,0,47.84,11.31,70.52,7.56,22.53-3.72,35.73-20.52,33.18-41.42-.05-.46-.65-.76-1.14-.52Z"></path><path class="st0" d="M533.87,699.05s-11.55,33.23-11.3,57.38c.11,11.25,16.89,18.92,19.38,20.01,3.06-1.14,19.68-9.13,19.57-20.38-.22-22.88-11.2-53.7-12.36-56.87-2.76,2.93-12.06,2-15.29-.14Z"></path><path class="st0" d="M504.65,692.06c-4.8-1.52-11.44-6.97-12.66-9.22-19.14,9.65-35.83,22.79-40.47,36.57-2.79,8.32,6.86,19.54,18.46,21.71.22.06.41,0,.6-.11.16-.11.3-.3.33-.52,3.63-20.3,18.65-37.46,33.75-48.43Z"></path><path class="st0" d="M511.62,696.5c-11.71,10.35-21.22,24.29-24.67,39.79-2.39,10.65,9.57,20.11,19.38,22.63.49.14.98-.22,1-.7,1.41-26.21,11.68-48.98,22.04-61.72.19-.22.03-.35-.41-.16-3.31,1.46-12.98,4.39-17.35.16Z"></path><path class="st0" d="M578.54,702.9s-7.02.92-11.17-4.55c-2.17,1.57-11.87-.79-13.52-1.63,10.49,12.6,21.01,34.94,22.91,60.82.03.49.52.81,1,.68,9.76-2.71,21.49-12.42,18.92-23.01-2.93-12.15-9.62-23.23-18.13-32.31Z"></path><path class="st0" d="M611.67,694.25c-5.36,7.21-16.45,4.17-16.5,4.17-1.49,2-5.26,2.41-5.26,2.41,10.79,10.14,19.95,23.26,22.93,38.25.05.22.16.38.35.49.19.11.38.16.6.11,11.54-2.38,21.01-13.8,18-22.09-2.98-8.27-10.41-16.27-20.11-23.34Z"></path><path class="st0" d="M640.48,387.99c-8.38-7.35-20.44-7.18-27.38-5.04,4.53-5.56,15.1-10.14,18.22-10.68,2.38.87,9.16,7.86,9.16,15.72Z"></path><path class="st0" d="M667.26,357.55c-5.5-29.49-74.08-9.95-108.61-22.5-.65,8.59,10.62,22.39,21.44,27.48-18.46,16.02-35.05,48.3-38.38,87.74-3.33-39.44-19.92-71.72-38.38-87.74,10.79-5.1,22.09-18.89,21.44-27.48-34.53,12.52-103.11-7.02-108.64,22.5-1.17,6.23,1.84,15.75,5.1,18.49.57-1.98,3.61-8.46,13.17-9.89,48.3-7.29,88.63,67.17,52.23,97.25-.54.46-.24,1.3.51,1.3h109.15c.73,0,1.06-.84.52-1.3-36.43-30.11,3.9-104.54,52.23-97.25,9.57,1.46,12.58,7.91,13.17,9.89,3.23-2.74,6.24-12.25,5.04-18.49Z"></path><path class="st0" d="M442.64,387.99c8.4-7.35,20.46-7.18,27.38-5.04-4.53-5.56-15.1-10.14-18.19-10.68-2.39.87-9.19,7.86-9.19,15.72Z"></path><path class="st0" d="M709.19,552.19c-.08-.08-.03-.22.08-.22.03,0,.06,0,.08-.03l.24-.24c.05-.05.08-.11.08-.16,0-.14-.11-.24-.24-.24h-.3c-.08,0-.16.02-.24.05l-.35.19c-.11.05-.27.02-.35-.06l-.35-.35c-.05-.06-.16-.03-.16.08,0,.06-.05.11-.11.11h-.02c-.08,0-.16-.11-.11-.19l.19-.41c.03-.05.05-.11.05-.19v-.54c0-.43-.16-.86-.49-1.16-.13-.14-.27-.22-.43-.3l-.35-.19c-.06-.03-.11-.03-.16-.03h-.14c-.35,0-.49-.49-.16-.65.03,0,.05-.03.08-.06l.32-.27c.22-.19.38-.4.49-.65l.16-.33s.03-.05.03-.08c0-.11-.08-.19-.19-.16l-.4.06h-.11c-.22-.08-.22-.35,0-.43h.02s.03,0,.06-.03l.35-.22c.3-.19.3-.6.03-.82-.03-.02-.06-.02-.08-.05l-.03-.03c-.16-.16-.27-.41-.27-.65v-1.24c0-.16-.14-.27-.3-.22-.02,0-.05.02-.08.02l-.11.08c-.14.11-.27.16-.43.19l-.11.03-.16.03c-.11,0-.22.02-.35.05l-.84.22-.35.11c-.22.08-.44.11-.68.11l-1.3.02h-.19c-.52,0-1.03.24-1.33.65-.11.14-.19.27-.24.43l-.19.46c-.03.08-.11.16-.19.24l-.19.16s-.03.03-.03.06,0,.05.03.05l.24.19c.06.03.06.08.06.14,0,.11-.11.19-.22.16l-.35-.11c-.08-.03-.14-.05-.19-.11l-.22-.22c0,.22-.3.32-.41.52l-.05.08c-.06.11-.14.22-.24.3l-.22.22-.13.14c-.08.08-.06.22.08.24.03,0,.08,0,.11-.03l.11-.08c.11-.08.24-.11.38-.08l.46.11.41.16c.16.05.27.22.27.4,0,.24.19.44.43.44h.19s.06,0,.08.03l.16.08c.11.06.08.24-.05.24-.08,0-.14.06-.14.14v.3c0,.14-.11.24-.24.24-.06,0-.11-.02-.16-.08l-.02-.03c-.14-.14-.36-.14-.49,0-.06.06-.14.11-.24.11h-.46c-.22,0-.4-.19-.4-.4,0-.16-.08-.3-.22-.38l-.35-.19c-.06-.02-.11-.05-.16-.11l-1.06-.78c-.14-.08-.27-.16-.44-.19l-.08-.02h-.06c-.16,0-.3.14-.3.3v.19c0,.11-.11.19-.22.16h-.03c-.06-.03-.08-.05-.08-.11,0-.03,0-.05-.02-.08l-.16-.22c-.08-.11-.22-.22-.32-.27l-.08-.06c-.24-.14-.54-.14-.78-.08l-.22.06s-.06.02-.08.05c-.14.14-.05.32.11.38l.14.03c.19.03.24.24.11.38l-.19.19c-.24.24-.65.16-.79-.14-.02-.03-.02-.08-.05-.11l-.03-.03c-.16-.16-.4-.19-.6-.03-.03.03-.05.03-.05.06l-.36.22c-.16.11-.4.08-.54-.05-.06-.06-.14-.11-.22-.11h-.06c-.11-.03-.22,0-.32.02l-.73.3c-.08.03-.16.08-.24.14l-.62.43c-.16.11-.35.08-.49-.05-.08-.08-.16-.11-.27-.11h-.05c-.08,0-.16.02-.24.05l-.9.44c-.22.11-.46.05-.62-.11-.02-.05-.08-.08-.13-.11l-.11-.05c-.3-.16-.68-.19-1-.08l-.24.08c-.16.05-.33.14-.46.22l-.24.16c-.36.24-.79.35-1.2.35h-.68c-.22,0-.43.08-.6.24l-.06.05s-.08.06-.11.08l-.43.22c-.08.05-.19-.03-.19-.11,0-.08.06-.14.14-.14h.03c.08,0,.16-.08.16-.16s-.08-.16-.16-.16h-.11c-.06,0-.08,0-.14.03l-.41.19c-.13.08-.27.16-.38.27-.11.11-.24.22-.38.27l-.24.11c-.14.08-.3.11-.46.11h-.14c-.19,0-.38.08-.52.22-.08.08-.16.13-.27.19l-1.82.6s-.05.03-.08.03h-.08c-.11,0-.19.08-.19.19v.08c0,.16-.19.22-.3.11-.03-.03-.08-.06-.11-.06h-.08c-.11,0-.22.06-.3.14l-1.2,1.52-.95.95c-.05.05-.11.08-.16.08h-.16c-.14,0-.22.19-.11.3.03.02.05.08.05.11v.02c0,.14-.11.24-.24.24h-.3c-.08,0-.16.03-.24.06l-.35.16c-.14.08-.27.16-.38.27s-.24.22-.38.27l-.46.24-.95.62c-.06.03-.11.06-.14.08l-.11.03c-.38.14-.49.6-.22.9.05.05.08.08.11.14l.22.43c.05.11.08.24.08.35v.35c0,.27.22.49.49.49h.03c.11,0,.22-.05.27-.11.14-.14.32-.16.49-.06l.78.49c.38.22.65.6.73,1.03l.11.54c.06.27.03.57-.11.84l-.08.16c-.03.08-.06.16-.06.24,0,.3-.24.54-.54.54h-.16c-.19,0-.38-.08-.52-.22l-.05-.05c-.24-.24-.62-.32-.95-.22l-.82.27c-.4.14-.86.03-1.19-.27-.11-.11-.24-.19-.38-.24l-1.16-.49c-.16-.06-.35-.03-.49.11-.08.08-.14.19-.14.32v1.03c0,.3-.11.6-.32.81l-.03.03c-.19.19-.46.3-.73.3-.16,0-.32.03-.46.11l-.19.08c-.19.08-.36.22-.49.35l-.52.51c-.19.19-.41.33-.65.41l-.49.16c-.08.03-.19.03-.27-.03l-.3-.14c-.11-.05-.24.03-.24.14,0,.06-.03.08-.06.11l-.54.54c-.06.05-.14.11-.24.11s-.24.08-.3.19l-.24.46s-.02.03-.02.06v.27s0,.02-.03,0h-.03l-.05.11s0,.03-.03.03l-.19.19c-.22.22-.27.54-.14.81l.08.14s0,.03-.03.03h-.14c-.08,0-.16-.08-.16-.16,0-.08-.08-.16-.16-.16-.08,0-.16.08-.16.16v.79c0,.19-.24.24-.32.08,0-.03-.03-.03-.03-.06l-.11-.11c-.32-.32-.81-.43-1.25-.3l-.08.03c-.14.05-.3.08-.43.08h-.14c-.57,0-1.08-.38-1.28-.92-.03-.06-.05-.14-.08-.19l-.11-.24c-.33-.62-.92-1.06-1.6-1.16l-1.92-.3c-.52-.08-1.03.03-1.46.3l-4.34,2.74c-.19.14-.38.27-.52.46l-1.16,1.41c-.19.22-.41.38-.65.51-.6.3-1.3.3-1.87,0l-.38-.19-.84-.43c-.3-.16-.65-.24-1-.24h-1.03c-.08,0-.16,0-.24-.03l-.95-.24c-.14-.03-.24.05-.24.19,0,.06-.02.11-.05.14l-.11.11c-.11.11-.24.16-.41.16h-.27c-.11,0-.22-.06-.3-.14-.14-.14-.16-.32-.08-.49l.14-.27c.06-.08.11-.16.19-.19.27-.14.32-.49.11-.7l-.19-.19s-.05-.05-.11-.08l-.16-.11c-.52-.35-1.14-.46-1.74-.3l-.38.11-.16.06c-.54.19-1,.57-1.24,1.08l-.92,1.84-1.24,2.22c-.03.06-.11.11-.19.11-.11,0-.22-.11-.22-.22v-.35c0-.08-.03-.14-.08-.19-.14-.14-.08-.35.08-.44l.3-.14s.08-.05.11-.08l.05-.05c.14-.14.14-.35,0-.49-.05-.06-.11-.14-.11-.24v-.14c0-.24.14-.46.35-.6l.24-.14c.06-.03.08-.06.11-.11.11-.19-.11-.41-.3-.3l-.06.03-1.6.98c-.05.03-.08.05-.11.08l-.27.27c-.16.16-.46.14-.57-.08-.08-.14-.05-.3.06-.41l.7-.7c.08-.08.22-.14.32-.14.08,0,.19-.03.27-.08l.87-.6s.03,0,.03-.03c.14-.06.08-.24-.06-.24l-2.58.24s-.08,0-.11.03l-3.28,1.16c-.24.08-.48.14-.73.14h-1.17c-.08,0-.14.03-.22.05l-.19.11c-.19.08-.22.36-.08.49.03.03.06.06.08.06l.05.03c.32.16.49.54.38.89v.03c-.08.24-.27.41-.49.49l-.16.06c-.3.11-.54.32-.68.62l-.41.98c-.05.14-.02.27.08.38.11.11.24.14.38.06.22-.11.46.05.46.3v.03c0,.08.02.16.11.24l.14.14c.05.06.11.14.16.22l.19.38c.05.11.08.22.08.35v.11c0,.24.14.44.32.54l.11.05c.14.08.24.22.24.38v.08c0,.19-.16.32-.32.32h-.14c-.11,0-.19.08-.19.19,0,.16-.22.27-.32.14l-.24-.24c-.06-.05-.14-.11-.24-.11h-.03c-.11,0-.22.06-.3.11l-.08.08c-.08.08-.22.14-.32.14-.27,0-.49.22-.49.49v.3c0,.57-.6.95-1.11.68l-.08-.02c-.08-.06-.16-.08-.24-.08l-.92-.14c-.78-.11-1.54.19-2.03.82l-.06.08c-.11.14-.24.27-.4.41l-.3.22c-.52.38-1.16.51-1.76.35-.22-.06-.44-.16-.62-.27l-.6-.38c-.08-.05-.16-.14-.19-.22l-.16-.3c-.06-.13,0-.27.11-.32l.05-.03c.16-.08.16-.32,0-.38-.13-.08-.3.02-.32.16l-.3,2.68-.33,3.55c0,.08-.05.16-.11.22l-.05.05c-.11.11-.3.11-.41,0l-.3-.3c-.05-.06-.16-.03-.16.08,0,.06-.06.11-.11.11h-.38c-.14,0-.24-.05-.32-.14l-.14-.13c-.06-.06-.08-.11-.08-.16,0-.14-.11-.24-.24-.24h-.43c-.22,0-.43-.11-.54-.3l-1.06-1.57c-.05-.11-.19-.16-.3-.16-.08,0-.16-.03-.24-.11-.14-.14-.14-.35,0-.49l.16-.16c.16-.16.22-.43.11-.65l-.13-.27s-.03-.03-.06-.06l-.24-.11c-.08-.03-.14.05-.08.11.02,0,.02.03.02.06v.16c0,.08-.02.16-.11.24-.14.14-.35.14-.49,0l-.35-.35c-.05-.05-.11-.14-.16-.22l-.06-.14c-.03-.05-.05-.11-.11-.19-.46,9.13-8.56,16.4-18.49,16.4h-19.9c-14.26,0-23.55,14.34-23.55,14.34,0,0-9.3-14.34-23.55-14.34h-19.89c-10.22,0-18.51-7.7-18.51-17.21v-.84c-.08.03-.16.08-.22.14l-.14.14s-.05.03-.08.03c-.11,0-.16-.14-.08-.22l.08-.08s.05-.08.05-.11v-.19c0-.24-.14-.46-.35-.6l-.27-.14s-.08-.03-.11-.03h-.22c-.16,0-.22-.19-.11-.3.03-.02.05-.08.05-.11v-.02c0-.14.11-.24.24-.24h.3c.08,0,.16.02.24.05.19.11.41.08.6-.03v-2.08c-.11-.03-.24-.03-.35,0l-1.08.22c-.16.03-.22.24-.11.35.03.03.05.08.05.14v.11c0,.27-.22.49-.49.49-.14,0-.24-.06-.33-.14l-.08-.08c-.08-.08-.11-.19-.11-.3v-.08c0-.06.03-.11.08-.16.14-.14.08-.32-.08-.38l-.57-.19c-.05-.03-.14-.03-.19-.03h-1.03c-.14,0-.27-.05-.35-.16-.11-.11-.27-.16-.46-.13l-1.36.24c-.24.05-.49.05-.73,0l-1.57-.27s-.08-.03-.08-.06l-.14-.14c-.05-.05-.16-.02-.16.08,0,.05-.05.11-.11.11h-.08c-.08,0-.16.08-.16.16v.14c0,.16-.24.22-.33.08-.03-.03-.05-.06-.08-.08l-.57-.27c-.05-.03-.08-.06-.11-.08-.16-.16-.43-.19-.6-.03l-1,.76-.3.3c-.62.62-1.54.81-2.36.49l-.08-.03c-.16-.06-.33-.16-.46-.27l-.33-.27c-.46-.35-.65-.98-.46-1.52.03-.06.05-.11.08-.16l.08-.14c.14-.3.14-.62,0-.89-.24-.49-.05-1.11.43-1.36l.33-.16c.05-.02.14-.05.19-.08l.22-.08c.43-.14.89-.08,1.3.14l.51.3c.33.19.7.14.98-.11l.16-.16c.05-.05.08-.11.08-.16v-.08c0-.08.08-.16.16-.16s.16-.08.16-.16v-1.33c0-.32-.11-.65-.33-.92l-.51-.68c-.11-.14-.24-.27-.41-.4l-.62-.46c-.3-.24-.54-.57-.68-.95l-.14-.4s-.03-.06-.05-.08c-.11-.11-.3-.02-.3.14v1.79c0,.27-.14.54-.33.71l-1.65,1.38-.87.7c-.49.41-.79,1-.79,1.63s-.3,1.25-.81,1.65l-.52.38-.27.27c-.27.27-.41.62-.41,1l-.6.24-.62.48c-.11.11-.3-.02-.22-.19.03-.05.03-.14-.03-.16l-.3-.3c-.16-.16-.11-.41.08-.52.16-.08.22-.27.16-.41l-1.08-2.44c-.05-.11-.16-.19-.3-.19-.08,0-.16.03-.22.08l-.08.08c-.11.11-.24.16-.41.16h-.49c-.19,0-.38.02-.54.08l-.22.08c-.33.11-.68.08-1-.08l-.11-.06c-.05-.02-.11-.08-.16-.11-.16-.16-.41-.22-.62-.14l-.43.14c-.14.06-.3.08-.43.08h-.41c-.49,0-.95.16-1.33.46l-.14.11c-.38.3-.65.7-.79,1.19l-.16.6-.27,1.11c-.03.14-.14.22-.27.22-.08,0-.14-.03-.19-.08l-.43-.44c-.05-.05-.16-.02-.16.08,0,.05-.05.11-.11.11h-.16c-.05,0-.08,0-.11-.03l-.19-.08c-.27-.14-.49-.38-.57-.68l-.11-.3c-.05-.16-.14-.33-.22-.46l-.41-.62c-.08-.11-.16-.19-.3-.27l-.41-.19c-.05-.02-.14-.02-.16.03l-.05.06c-.08.08-.22.03-.22-.08,0-.02,0-.05.03-.08l.19-.19c.08-.08.19-.11.3-.11.27,0,.46-.24.41-.49l-.19-.9c-.03-.16-.11-.32-.22-.49l-.3-.38c-.33-.43-.89-.54-1.38-.32-.33.16-.57.49-.6.84l-.22,1.79c-.03.14.11.27.24.27.03,0,.08,0,.11.03l.05.02c.3.14.41.52.22.79l-.27.41c-.03.05-.08.11-.14.16l-.7.7c-.14.14-.35.14-.49,0l-.03-.02c-.05-.06-.11-.08-.16-.08h-.16c-.05,0-.08.03-.08.08,0,.08-.11.11-.14.05l-.54-.78-.49-.92c-.05-.11-.03-.24.05-.35.05-.05.08-.14.08-.22v-.3c0-.16.03-.33.11-.46l.14-.27c.05-.11.08-.24.08-.36v-.48c0-.19-.16-.33-.33-.33-.19,0-.33-.16-.33-.32v-.87c0-.3.11-.6.33-.81l1.17-1.46c.08-.11.16-.24.24-.38l.19-.38c.03-.05.05-.11.08-.19l.24-.7c.03-.11.16-.19.27-.19.08,0,.16.03.22.08.14.14.35.14.49,0l.6-.6c.05-.05.16-.02.16.08,0,.05.05.11.11.11h.08c.08,0,.16-.06.19-.16l.27-1.52c.03-.22.03-.44-.05-.62l-.43-1.25c-.08-.22.08-.43.33-.43s.41-.27.3-.49l-.38-.79c-.03-.05-.03-.11.03-.16l.03-.03s.03-.11,0-.14c-.03-.03-.05-.03-.08-.03h-.19c-.05,0-.14-.03-.16-.08l-.14-.14s-.05-.08-.03-.14c0,.03,0,.06.03.08l.14.14c.05.06.11.08.16.08h.08c.08,0,.19.02.24.11.08.08.24.03.24-.11v-.9c0-.08.03-.16.05-.22l.24-.52c.03-.05.03-.08.03-.14,0-.32.43-.43.57-.14l.05.11s.03.08.03.14v.11c0,.08-.08.16-.16.16s-.16.08-.16.16v1.14c0,.22.16.38.38.38.16,0,.33.14.35.3l.24,1.16c.03.08-.05.19-.14.19s-.16.05-.16.16v.08c0,.05.03.13.08.16l.19.19c.05.05.11.08.16.08.14,0,.24.11.24.24v1.06c0,.24.08.52.22.7l.46.68,1,1.33,1,1.65.24.49c.27.52.73.92,1.3,1.08l1.98.6c.33.11.65.11,1,.06l1.25-.22c.16-.03.3-.08.46-.14l1.27-.52c.11-.03.19-.11.24-.16.14-.14.22-.35.22-.54v-.03c0-.22.08-.43.24-.57l.3-.3c.08-.08.16-.16.22-.27l.24-.38c.19-.3.22-.7.05-1.03l-.03-.06c-.03-.05-.08-.11-.11-.16-.16-.16-.22-.41-.14-.62l.43-1.3c.05-.19-.08-.38-.27-.38-.16,0-.27-.14-.27-.27v-1.68c0-.06-.03-.08-.05-.11l-.24-.24s-.03,0-.03.03c0,.02-.03.02-.05,0l-.3-2.04v-3.47c0-.14-.03-.27-.08-.4l-.22-.44s-.05-.05-.11-.05c-.11,0-.14-.11-.08-.19l.05-.05c.05-.06.05-.14,0-.19l-.16-.16c-.05-.05-.08-.11-.08-.16,0-.14-.11-.24-.24-.24h-.16c-.16,0-.33-.11-.38-.27l-.22-.65c-.03-.05-.05-.11-.08-.19l-.16-.32c-.08-.16-.22-.33-.41-.41l-.14-.05c-.16-.08-.38-.08-.54,0l-.24.13c-.08.06-.19.03-.27-.05-.11-.11-.08-.3.05-.35l.33-.16c.05-.03.08-.05.14-.08l.35-.35c.14-.14.11-.35-.08-.44l-.08-.05c-.11-.06-.14-.22-.05-.33.08-.08.08-.22,0-.27l-.19-.16s-.03-.03-.05-.03l-.38-.19c-.08-.03-.05-.14.03-.14t.05-.03l.08-.08c.14-.14.14-.35,0-.49l-.05-.06s-.03-.05-.03-.08c0-.11.14-.16.22-.08l.41.4s.08.08.14.08h.03c.38.14.73-.22.6-.6l-.03-.11-.27-1.03c0-.06-.08-.03-.08,0s-.03.03-.03.03h-.76c-.05,0-.11.05-.11.11,0,.08-.11.14-.16.08l-.11-.11s-.05-.08-.05-.11v-.14c0-.08-.03-.16-.05-.24l-.27-.54v-.06c0-.11-.14-.16-.22-.08l-.08.08s-.05.08-.05.11v.03c0,.14-.11.24-.24.24h-.35c-.05,0-.11-.03-.14-.08l-.22-.52s-.05-.03-.05,0v.03l-.3.22c-.22.16-.51.22-.76.11l-.6-.24-.33-.11c-.22-.08-.46-.03-.65.11-.03.03-.05.05-.11.05l-.24.14c-.22.11-.46.06-.6-.16-.08-.11-.19-.19-.33-.22h-.11l-.24-.03c-.22-.03-.43.14-.43.38,0,.13-.08.27-.22.32l-.76.38c-.24.11-.43.3-.6.49l-.46.6c-.22.27-.33.6-.33.92,0,.11,0,.22-.03.3l-.3,1.49-.14.52c-.14.49-.49.9-.98,1.06-.16.06-.33.08-.49.08h-.43c-.41,0-.81.14-1.14.4l-1.46,1.19s-.03.06,0,.08t0,.05l-.89,2.01c-.08.16-.16.32-.3.49l-.76.95c-.24.3-.62.49-1,.49-.24,0-.52.08-.7.22l-.62.41c-.05.03-.08.05-.14.05h-.03c-.14,0-.24.11-.24.24,0,.06-.03.14-.08.16l-.14.14c-.08.08-.19.14-.3.19l-.41.14c-.3.08-.51.32-.6.6l-.14.38c-.03.11,0,.22.08.3.11.11.11.3,0,.4l-.84.84c-.19.19-.33.44-.38.68l-.03.14c-.14.49-.49.89-.98,1.06l-.08.03c-.11.02-.22.05-.3.05-.49,0-.89.35-.98.84l-.22,1.49-.14,1.06c-.11.95-.87,1.71-1.82,1.87l-2.71.43-4.47.32s-.03,0-.03-.02c0,0,0-.03-.03-.03h-2.11c-.14,0-.27,0-.41-.03l-1.41-.27c-.08-.02-.19,0-.27.03-.27.14-.33.49-.11.7l.08.08c.11.11.24.16.38.16h.38c.05,0,.08.03.11.06l.08.08c.08.08.03.22-.08.22-.03,0-.05,0-.08.03l-.24.24c-.05.06-.08.11-.08.16v.08c0,.08-.08.16-.16.16s-.16.08-.16.16v.95c0,.13.03.27.08.4l.22.46s.03.03.05.03c.08,0,.08.11.03.11l-.68.16s-.05.03-.08.08c-.03.08-.11.11-.19.06l-.27-.27c-.08-.08-.24-.08-.33,0-.08.08-.24.08-.33,0l-.6-.6c-.14-.14-.35-.14-.49,0l-.03.03c-.05.05-.11.08-.16.08-.14,0-.24-.11-.24-.24v-.16c0-.13-.11-.27-.27-.27-.08,0-.16.05-.22.11l-.14.19s-.03.03-.05.06l-.38.27s-.03.06.03.06c.03,0,.05.03.03.06l-.24.38c-.08.14-.24.19-.38.11l-.14-.08c-.14-.08-.3-.08-.46,0l-.24.14c-.08.06-.14.06-.22.06h-.46l-.03.02-.57.79c-.08.14-.19.24-.33.35l-.24.22c-.22.19-.51.3-.81.3h-.24c-.22,0-.41.11-.54.27l-.08.11c-.14.16-.14.4-.03.6.03.02.03.05.03.05.08.19.08.41,0,.6l-.22.41c-.08.16-.3.22-.43.11-.11-.08-.16-.22-.11-.35l.05-.11.05-.22c.03-.06-.03-.11-.08-.11s-.08.02-.08.08l-.03.08c-.03.11-.11.16-.22.16h-.03c-.08,0-.16-.03-.19-.11l-.03-.03c-.11-.14-.27-.16-.41-.08l-.27.16c-.05.03-.14.06-.22.06h-.27c-.08,0-.16.08-.16.16v.11s.03.05.05.05.05.03.05.08l-.03.24v.06l-.14.43c-.14.38-.35.71-.62.95l-.22.19c-.08.06-.16.11-.27.16l-.38.16c-.19.08-.3.27-.24.46.03.22-.05.43-.19.6l-.62.76-.98,1.17c-.08.11-.11.22-.11.35,0,.08.05.19.11.24l.19.22.14.14c.14.14.16.32.11.49v.03s-.03.05-.03.08v.11c0,.11.08.19.19.19.05,0,.11.03.16.08l.16.27c.14.22.16.46.08.7l-.24.62s-.03.02-.03.05c-.11.14,0,.32.16.32.05,0,.11.03.16.08l.08.08c.08.11.22.16.35.16h.03c.22,0,.38.14.46.32l.38,1.06c.05.19.11.38.11.57v.32c0,.05,0,.08.03.14.05.11.03.27-.08.35l-.22.16-.73.68-.87.87c-.08.08-.22.14-.33.14-.24,0-.46.19-.46.43v.27l.05.24s.03.05.05.05.05.03.05.06v.11c0,.11-.08.19-.16.19h-.03c-.05,0-.11.03-.14.06l-.16.16c-.08.08-.14.14-.16.24l-.11.24c-.08.19-.14.4-.16.6l-.05.35c-.03.24-.03.49.03.7l.05.22c0,.06.03.14,0,.19-.03.16-.08.3-.19.4l-.16.16-.14.14c-.14.14-.19.32-.08.51.03.03.05.06.08.08l.05.05c.16.16.27.38.3.6l.05.41c.03.16-.03.3-.14.41-.11.11-.16.24-.14.4l.03.38v.08c-.03.08-.11.16-.22.16h-.35c-.11,0-.24-.03-.35-.08l-.3-.16c-.14-.05-.27-.11-.41-.11-.3,0-.6-.16-.73-.43l-.14-.24c-.14-.22-.33-.38-.57-.46l-.35-.11c-.19-.05-.38,0-.51.14-.05.08-.11.16-.11.24l-.05.44c0,.05-.03.14-.05.19l-.08.14c-.03.06-.11.11-.19.11s-.14.03-.19.08l-.43.6-.46.57c-.05.05-.08.14-.14.22l-.24.52s-.05.05-.08.05c-.08,0-.11.08-.05.14l.11.14s.05.08.03.14l-.03.08c-.03.08.05.16.14.16h.05l.57.22c.16.06.33.06.49-.03l.08-.05c.19-.11.41-.06.54.11.05.05.08.11.11.16l.05.13c.08.27.27.52.54.65l.24.14.22.14c.22.14.38.3.54.49l.3.35c.19.24.3.52.33.81v.08c.03.3-.05.6-.22.87-.11.19-.19.41-.22.62l-.03.38c0,.11-.05.19-.14.27l-.05.05c-.11.11-.27.14-.41.06l-.08-.03c-.16-.08-.35,0-.41.16v.03c-.05.22-.16.38-.33.51-.35.27-.43.76-.22,1.14l.19.35.6.76c.11.16.16.35.11.51v.03s0,.03-.03.03l-.11.22c-.03.06,0,.11.05.11.03,0,.05.03.08.06l.05.16c.03.06-.03.11-.08.11-.03,0-.05.02-.08.05l-.08.16-.92,1.52c-.16.27-.11.62.16.82l.24.24c.27.27.49.62.57,1l.03.08.22.62s.03.06.03.11c.03.16.14.33.3.38l.79.24s.05.03.08.03l.95.6s.03.06-.03.06t-.03.02l-.22,1.17c-.03.08-.03.16-.03.24v.68c0,.14.05.27.16.35l.11.08c.08.08.22.08.3,0,.14-.11.35-.06.38.14l.27.86c.03.08.05.14.08.19l.62,1.03-.49-.51c-.14,0-3.12.95-3.79.95s-2.3.81-2.71.81-1.49-.81-2.17-.81-1.08.81-1.22,1.22c-.14.4-.95,0-1.36,0s0,1.08-.68.81c-.68-.27-.27-.95-.27-1.76s-1.08-2.57-1.36-2.57-1.22,2.3-1.63,1.36c-.41-.95-1.08-.54-1.22-.95-.14-.4-.68-1.35-.81-1.76-.14-.41-.81-1.22-.95-.41-.14.82-.41.41-.68.41s-1.49.95-1.49,1.22-.68.27-.95.14c-.27-.14.41-2.03-.14-2.03-.46,0-1.08,1.03-1.3,1.44.11-.38.3-1.22.22-1.3-.14-.13-.95,1.63-1.22,1.22-.22-.32-.54-.14-.68,0,.08.19.27.65.27,1.08s.62,1.28.95,1.63c.08,0,.24.16.41.41-.03.05-.03.08-.03.13.03.19-.19.33-.35.19l-.54-.46c-.05-.06-.14-.08-.22-.11l-1.38-.3c-.05,0-.14-.03-.19-.03l-1.11-.05c-.16,0-.3.14-.27.3,0,.08.05.14.14.19l.27.16c.19.11.33.27.41.46l.46,1.19c.05.14.03.27-.05.38l-.73,1.08-.65.3c-.19.08-.3.32-.24.54l.11.46c.05.24.22.46.41.6l.52.38v.03s0,.02.03.02l1.17-.02c.14,0,.24.02.38.05l.89.27,1.46.54c.08.03.19.06.27.06h.05c.35.03.68.27.81.6.05.16.16.27.27.38l.81.68c.19.16.49.11.62-.11v-.03c.08-.11.19-.19.33-.19.33,0,.49-.35.3-.62l-.22-.3c-.08-.11-.19-.19-.33-.22l-.16-.02c-.14-.03-.24-.14-.3-.3-.05-.19-.22-.32-.43-.3h-.24c-.3-.08-.49-.35-.46-.68l.08-.84c0,.08.03.16.05.22.35-.54,2.28-2.3,2.71-2.3.54,0,.68.82,1.49.82s1.63,1.62,2.17,1.62.41.95,1.08.81c.68-.13,1.49.27,1.49.41s.81,1.36,1.63.68c.54-.46.89-.62,1.03-.68-.14.19-.11.46.11.6.03.03.05.06.08.08l.08.08c.14.14.27.24.46.3l.7.24.6.27c.08.06.14.14.11.24v.06c0,.05-.08.11-.14.11s-.11.02-.14.08l-.11.3c-.05.11-.22.13-.27.02-.03-.05-.08-.08-.14-.08h-.14c-.08,0-.14-.03-.19-.06l-.46-.24c-.05-.02-.08-.02-.14-.02h-.33s-.05-.03-.05-.08c0-.02,0-.05-.03-.05l-.24-.22c-.05-.06-.14-.08-.22-.08h-.05c-.16,0-.3.14-.3.3v.08l-.08.27-.03.03h-.03l-.22-.24c-.05-.06-.08-.11-.11-.16v-.03c-.08-.14-.19-.27-.3-.35l-.14-.11c-.08-.06-.19-.08-.3-.08-.16,0-.33-.08-.43-.24l-.05-.11c-.08-.11-.24-.06-.24.08v1.57l.08,1.33c0,.08-.11.11-.14.03,0-.03-.03-.03-.05-.03h-.03c-.05,0-.11-.06-.11-.11l-.03-.57c0-.14-.16-.22-.27-.14l-.16.14-.3.22c-.08.05-.19,0-.19-.08v-.08s.03-.05.05-.05.05-.06.03-.08l-.11-.16c-.05-.06-.14-.08-.19-.06l-.51.27-.33.19c-.19.11-.38.16-.6.16h-.14c-.19,0-.35.05-.49.16l-.05.02c-.11.08-.24.14-.41.14-.14,0-.27-.05-.38-.14l-.68-.49c-.05-.02-.08-.08-.11-.11l-.22-.38c-.11-.19-.38-.13-.41.08v.05c.03.11-.11.22-.22.16l-.24-.14s-.08-.03-.11-.03c-.19,0-.3.19-.19.35l.16.27s.03.08.05.11l.22.87c.05.27.05.54-.03.79-.05.19-.08.38-.08.6l.03.24c0,.08.05.16.08.24l.08.11c.05.08.14.11.22.11.14,0,.27.11.27.27l.03.76v.24c-.03.27.03.57.14.84l.46,1.33c.05.16.11.35.11.54l.19,2.06.05,1.95c0,.4.33.7.73.7.24,0,.49.14.62.32l.22.35.27.33.03.02h.08s.03.03,0,.03v.03l1.03,2.06c.08.16.19.32.33.49l.81.89c.46.49,1.22.54,1.73.14l.35-.27s.03,0,0,.02l-.95.73c-.19.14-.22.41-.08.57l.54.78c.08.14.16.27.19.43l.35,1.25c.03.11.14.19.24.19.08,0,.14.02.19.08l.03.05c.11.14.3.16.43.11l.51-.22.35-.16c.24-.11.52-.03.65.16l.19.33v.02h-.03l-.19-.32c-.16-.19-.43-.27-.65-.16l-.35.16-.52.22c-.16.06-.33.03-.43-.11l-.05-.08s-.08-.06-.14-.06c-.11,0-.19.11-.16.22l.41,1.33c.03.05.03.13.03.22.03.35.24.65.57.76l.43.16,1.17.32.08.27v.11c-.03.14.08.27.22.27h.05c.08,0,.16.03.22.11l.3.35c.11.14.19.3.24.46l.11.41c.05.22.16.41.3.54l.03.02c.05.06.11.11.14.19v.03c.16.3.54.43.87.27.08-.05.19-.05.3-.05h.43c.11,0,.22.05.3.11l.22.22s.03.03,0,.06c0,.02-.03.02-.05,0l-.24-.22c-.05-.05-.14-.08-.19-.08h-.35c-.19,0-.35.03-.52.11l-.22.11c-.16.08-.33.16-.46.3l-.08.08c-.08.06-.14.14-.19.22-.27.36-.33.82-.16,1.2l.33.81c.05.14.14.27.22.38l.46.68c.19.3.33.62.35.98l.16,1.52c.03.19.05.36.14.54l.43,1.14c.14.35.49.6.87.6.11,0,.22-.03.33-.06l.35-.14c.24-.11.51-.14.79-.14h.3c.3,0,.57-.08.81-.24.38-.27.62-.7.62-1.16v-2.25l.24-2.17c.05-.54.33-1.03.73-1.38l1.17-1c.05-.05.14-.11.22-.14l.51-.22c.11-.05.16-.16.11-.27-.03-.08-.11-.13-.19-.13h-.05c-.16,0-.3-.14-.27-.33l.08-.7.08-.65c.03-.24,0-.46-.05-.68l-.16-.54c-.14-.46.08-.92.49-1.14l.57-.27s.08,0,.11.03t.05.03h.22c.08,0,.14.03.19.08.08.11.27.14.35,0v-.03c.05-.05.11-.08.19-.08.05,0,.11-.03.14-.06l.73-.46c.16-.11.35-.19.54-.24l.68-.19c.11-.03.19-.11.24-.19l.08-.14c.03-.05.08-.08.14-.08h.16s.03,0,.03.03,0,.03.03.03h.14c.08,0,.16.08.14.16-.03.08.05.16.14.16h.03c.05,0,.11-.03.14-.08l.03-.03c.08-.11.22-.16.35-.08l.68.46c.05.05.11.11.11.19l.03.19s0,.02.03.02h.03l.33-.3s.05-.03.08-.03h.05s.05.03.05.08c0,.06.05.11.11.06l.08-.11.11-.11c.11-.11.3-.08.38.05.03.06.03.11.03.16v.11c0,.11-.05.19-.11.27l-.16.19v.03c-.03.08.08.16.14.11l.54-.46.81-.6c.08-.06.16-.11.27-.14l.81-.27s.05,0,.05.03c.03.06.08.03.08-.03l-.49-2.2c-.03-.08.03-.13.11-.13.03,0,.08.02.11.05l.24.38c.08.14.24.22.41.22.24,0,.43-.16.46-.4l.24-1.76c.03-.11.03-.22.03-.3v-1.6c0-.57-.22-1.14-.62-1.54l-.03-.03-.38-.49c-.08-.11-.24-.11-.33-.03-.08.08-.22.08-.33,0l-.05-.06c-.08-.08-.11-.19-.08-.3l.16-.57c.05-.16.14-.33.24-.46.24-.3.35-.68.3-1.06l-.03-.3c0-.08-.03-.16-.05-.24l-.14-.44c-.08-.27,0-.6.22-.78.24-.22.33-.57.19-.87l-.05-.14s-.03-.05-.03-.08l-.19-.6s0-.03.03-.03h.03l.19.6s.03.08.05.11l.03.06c.16.32.54.46.87.3.05-.03.11-.08.16-.11l.05-.06c.14-.13.33-.22.51-.22h.14c.33,0,.57-.27.57-.57,0-.06,0-.14.03-.19l.11-.3c.14-.41.38-.76.73-1.03l.38-.3c.27-.19.57-.35.89-.41l1-.19c.11-.03.22-.08.3-.16.27-.27.7-.22.89.11l.43.73c.11.16.16.38.16.57v.32c0,.65.65,1.08,1.27.84.24-.11.43-.3.52-.57l.49-1.49c.03-.08.11-.14.19-.14.11,0,.19.08.19.19v.05c0,.06.03.14.08.16l.11.11c.11.11.24.16.41.16h1.11c.22,0,.43-.08.6-.24.05-.06.11-.14.14-.19.16-.32.54-.49.89-.41l1.55.41c.33.08.65.06.95-.11l.62-.3c.16-.08.35-.05.49.08l.03.03c.05.05.16.11.24.11.11,0,.22.05.3.16l.19.33c.08.14.14.3.14.43,0,.27.14.52.35.68l.33.22c.22.14.46.22.7.22h.3c.54,0,.98.43.98.98,0,.43.27.78.68.92l.08.03c.16.06.33.14.43.27l.27.27c.14.13.27.32.35.48.14.27.19.54.19.84,0,.16.03.3.05.46l.54,2.14c.05.16,0,.35-.14.46l-.05.06c-.05.05-.11.14-.11.24,0,.24.27.4.49.3l.08-.03c.08-.02.14-.11.16-.16l.11-.24c.08-.16.3-.19.43-.08.05.05.11.08.16.08.14,0,.24.11.24.24v.49c0,.19.08.38.22.52l.35.35c.08.08.14.16.19.24.16.32.49.54.87.54.24,0,.51-.11.68-.27.24-.24.6-.32.92-.24l.57.14c.14.03.27.08.41.16l.73.38c.24.14.46.32.6.6l.11.22s.03.08.03.11c0,.16.14.27.27.27h.27c.08,0,.16-.03.24-.06l.05-.02c.3-.16.68-.08.92.13l.11.11c.11.11.27.16.41.16.24,0,.49.16.57.41l.11.32c.05.19.05.38-.03.57-.14.24-.11.54.05.76l1.06,1.52c.22.3.54.46.89.46h.24c.14,0,.27-.06.38-.16l.05-.05c.22-.22.6-.16.73.11v.03c.03.05.03.11.03.16,0,.16.08.3.22.35l1.11.49c.6.27,1.3.16,1.82-.27.68-.54.81-1.52.38-2.25l-.22-.35-.87-1.14c-.05-.08,0-.19.08-.19.05,0,.11-.06.11-.11v-.16c0-.05,0-.08-.03-.11l-.24-.52c-.03-.08-.05-.16-.05-.24v-.4c0-.08-.05-.14-.14-.14h-.16s-.05-.03-.03-.06l.03-.02h.16l.87.22c.27.08.57.08.84,0l.11-.03c.49-.14.89-.49,1.06-.98l.03-.06c.03-.11.05-.24.05-.38v-.24c0-.16.05-.3.16-.41l.05-.06c.08-.08.19-.11.3-.11s.22-.05.3-.11l.05-.05c.11-.11.22-.16.35-.16.08,0,.16.03.24.06l1.19.62c.27.19.6-.11.46-.4l-.11-.24-.33-.49c-.22-.3-.16-.7.11-.98l.19-.19s.05-.05.11-.05c.16,0,.19-.22.05-.27l-.11-.05s-.03-.03-.05-.03l-.46-.46c-.08-.08-.03-.22.08-.22.03,0,.05,0,.08-.02l.54-.54c.05-.05.05-.14,0-.19-.08-.08-.03-.24.11-.24h.79c.14,0,.24.11.24.24,0,.05.03.14.08.16l.14.14c.08.08.19.14.3.19l.79.27c.05.03.11.03.14.06l.43.22c.11.06.19.16.19.3,0,.08.03.16.11.24.14.14.35.14.49,0,.05-.06.16-.11.24-.11h.57c.19,0,.38.02.57.11l.7.24,3.04.62c.19.02.38.11.54.19l.35.19s.08.06.11.08c.16.16.41.16.57,0l.19-.19c.14-.14.3-.19.49-.19h.22c.14,0,.24.03.38.05l.65.22c.11.02.24.11.33.19.14.14.3.22.49.24l2.39.3,2.14.27c.33.06.65-.08.87-.3l.16-.16c.11-.11.22-.16.38-.16.08,0,.16.03.24.06l.3.14c.16.08.35.05.49-.08l.03-.03c.05-.06.14-.08.22-.08h.14s.05,0,.05.03.03.03.05.03h.19c.05,0,.11-.06.11-.11,0-.08.11-.14.16-.08l.11.11s.05.08.05.11v.03c0,.13.11.24.24.24h.03c.05,0,.08,0,.14.02l.35.16c.19.08.35.22.49.35l.35.35c.08.08.14.16.19.24l.08.16c.11.22.33.35.6.35h.16c.08,0,.14-.03.19-.08.11-.11.33-.11.41.05l.24.38c.08.14.14.32.08.49l-.27,1.33v.62c0,.05.05.11.11.11.08,0,.14.11.08.19l-.62.82c-.14.19-.16.43-.05.65l.08.19c.05.08.11.16.19.24l.43.43c.08.08.19.11.3.11s.22-.05.3-.11l.14-.14c.05-.05.11-.08.16-.08h.08c.08,0,.16.08.16.16,0,.08.08.16.16.16s.16-.08.16-.16v-.11c0-.05.03-.08.05-.11.11-.11.3-.02.3.11v1.38c0,.24.27.41.49.3l.11-.06c.05-.03.08-.08.08-.14,0-.11.11-.19.22-.14l.41.19c.05.02.08.05.11.08l.81.81c.08.08.22.14.33.14h.24c.14,0,.24.11.24.24,0,.06-.03.14-.08.16l-.05.05c-.14.14-.33.16-.49.08l-.03-.03c-.22-.11-.46-.03-.6.16l-.3.43c-.08.14-.11.32-.03.49.11.24.41.32.65.22.16-.08.33-.05.46.03l1.27.78c.11.06.22.08.33.08s.19-.03.3-.08l.84-.43c.22-.11.46-.16.7-.16h.16c.3,0,.6-.11.81-.32l.22-.22c.08-.08.19-.14.33-.14h.43s.03,0,.03.03c0,0,0,.02.03.02h1.06c.19,0,.35-.08.49-.19l.24-.24c.14-.14.35-.14.49,0,.05.06.16.11.24.11.33,0,.49.38.27.62l-.03.03s-.05.05-.11.08l-.03.03c-.33.16-.46.54-.3.87l.7,1.41,1.3,2.33,2.17,11.11c.08.41.49.68.92.57l.27-.08c.16-.06.3-.19.3-.38v-.06c0-.19.16-.32.33-.32h.11c.14,0,.24-.11.24-.24,0-.05.03-.14.08-.16.14-.13.35-.08.41.08l.54,1.3.22.43c.27.54.79.95,1.38,1.11l.14.03c.16.03.3.08.43.16l.24.11c.16.08.33.11.49.11h.92c.08,0,.16-.08.16-.16,0-.08.08-.16.16-.16h.68c.11,0,.19-.03.27-.11.14-.14.33-.14.49-.03l.79.6c.19.14.33.3.43.52l.35.7c.11.19.3.3.51.3h.51s.05.03.05.06-.03.05-.05.05h-.35c-.3,0-.49.3-.38.57l.38.95c.03.08.08.19.14.24l.7.89c.14.19.27.41.33.62l.52,1.52c.03.11.11.22.19.3l.05.06c.11.11.22.16.38.16.08,0,.16.03.24.06l.46.24c.05.03.11.08.16.11.16.16.41.22.62.16l.95-.24.76-.24c.11-.03.24.05.24.19,0,.06-.03.11-.05.14l-.05.06c-.14.14-.14.32-.05.49l.92,1.3c.33.46.87.76,1.46.76h.11c.22,0,.41-.06.6-.14l.19-.11c.14-.06.24-.16.3-.3.14-.27.43-.43.76-.35l.95.19c.14.03.27.03.38.03h.57c.16,0,.3-.05.41-.16l.05-.06c.08-.08.19-.11.3-.11h.05c.08,0,.16.03.22.08.14.14.35.11.46-.05l.49-.71.11-.22c.14-.3.14-.62,0-.92l-.08-.16s-.03-.08-.03-.11v-.22s.03-.03.03-.03c.03,0,.03.03.03.03v.24c0,.05,0,.08.03.11l.05.11c.16.3.49.46.81.38l.6-.16c.11-.02.19-.02.3-.02h.62c.3,0,.54-.24.54-.54,0-.08.03-.16.05-.24l.03-.06c.16-.3.49-.46.81-.4l.57.11c.33.05.68.03.98-.14l.65-.32c.16-.08.33-.11.49-.11h.84c.14,0,.24-.11.24-.24,0-.06.03-.14.08-.16l.19-.19c.05-.06.11-.08.16-.08h.08c.08,0,.16.08.16.16s.08.16.16.16.16.08.16.16c0,.08.08.16.16.16h.11c.05,0,.08,0,.11-.03l.08-.05c.24-.11.52.05.52.32,0,.05,0,.11.03.16l.05.11c.16.3.46.49.79.49h.6c.14,0,.24,0,.35.02l.43.08c.65.14,1.17.6,1.38,1.22l.03.08c.19.76.79,1.36,1.57,1.57l1.3.32c.05,0,.11.03.16.03h.08c.11,0,.22-.06.33-.14.14-.14.33-.16.49-.11l1.03.43c.22.08.46.14.7.14.19,0,.41.03.6.11l.52.16c.14.06.27.14.38.24.3.3.79.38,1.14.16l1.3-.73c.27-.14.46-.38.54-.68l.46-1.35c.02-.11-.06-.22-.16-.22-.06,0-.11-.02-.16-.08l-.19-.41c-.06-.13-.08-.27-.08-.4v-.62c0-.11-.06-.22-.14-.32-.14-.14-.16-.33-.11-.49l.46-1.11c.08-.19.16-.35.3-.52l.73-.95c.08-.08.19-.14.3-.14s.19-.03.27-.11l.84-.84s.05-.08.08-.11l.16-.33c.05-.08.16-.11.24-.05l.02.03.65.32,2.33,1.33,1.87.95c.08.03.16.06.24.06.14,0,.27.05.35.16l.06.06c.08.08.19.16.32.19l1.14.3c.6.19,1,.76,1,1.41v.24c0,.44.16.87.44,1.19l1.08,1.28c.3.35.7.6,1.16.7l1.79.41c.33.08.68.08,1,0l1.92-.49c.16-.03.3-.08.44-.16l.27-.14c.14-.05.27-.11.41-.11.08,0,.16,0,.24.03l1.19.3,1.06.27c.16.06.36.06.54.06h.08c.44,0,.84.14,1.19.35l.33.22c.11.06.19.14.27.24l.24.24c.19.19.46.3.73.3h.06c.14,0,.24.03.35.08l.32.16c.08.03.14.11.14.22,0,.05.03.11.06.16l1.41,1.41c.32.32.76.54,1.22.62l1.63.24,2.28.33h.24c.08,0,.16-.03.24-.11.14-.14.35-.14.49,0,.05.05.14.11.24.11h.3c.16,0,.33-.03.46-.11l.46-.22.73-.48c.19-.14.38-.22.6-.27l2-.57,1.44-.4c.57-.16,1.06-.57,1.33-1.08l.06-.11c.14-.24.3-.49.51-.65l1.2-1.03c.51-.44,1.19-.62,1.84-.49l.33.05c.19.03.38.11.57.19l.6.3c.3.16.65.24,1,.24h.6c.11,0,.24,0,.35-.03l1-.16c.51-.08,1.06.02,1.49.3l.57.35c.24.16.54.24.81.3l.84.14c.62.08,1.27-.19,1.62-.73.06-.08.14-.19.22-.24l.73-.73c.11-.11.22-.19.32-.27l.68-.46c.11-.08.19-.14.27-.24l.41-.41c.08-.08.14-.22.14-.32v-.3c0-.08-.08-.16-.16-.16s-.16-.08-.16-.16v-.22l.68-2.63.57-2.52c.08-.3.22-.6.41-.84l.62-.81c.06-.08.14-.19.16-.27l.32-.62c.16-.33.11-.73-.16-.98-.16-.16-.24-.35-.24-.57v-.14c0-.13-.06-.24-.14-.32-.14-.14-.3-.16-.46-.11l-.11.03c-.35.11-.73-.08-.84-.41l-.03-.08c-.06-.19-.06-.41.05-.57l.11-.22c.06-.14.14-.24.24-.35l.73-.73c.08-.08.11-.19.11-.3s.06-.22.11-.3l.13-.14c.06-.05.14-.11.22-.16l1.19-.62.7-.44c.52-.32.68-1,.32-1.49-.02-.06-.08-.11-.14-.16l-.92-.92v-.06s.03-.03.06,0l.92.92c.06.05.08.08.11.13l.06.08c.35.54.95.84,1.6.84h.14c.33,0,.68-.08.98-.22l.79-.38c.08-.03.16-.06.24-.06h.05c.11,0,.22-.05.3-.14.14-.14.32-.16.49-.08l.87.43c.11.06.27.03.35-.05.11-.11.27-.11.38-.03l.73.49c.06.03.11.06.16.08l.73.24c.08.03.19-.02.19-.13,0-.08.05-.14.13-.14h1.6c.16,0,.3.05.41.16l.11.11c.05.06.08.11.08.16,0,.14.11.24.24.24.06,0,.14.03.16.08l.19.19c.06.05.11.08.16.08.14,0,.24.11.24.24v.19c0,.13.11.24.24.24.05,0,.14.03.16.08l.54.54c.27.27.46.6.54.95l.08.3c.08.3.22.6.43.84l1.28,1.52c.05.05.11.08.19.08.14,0,.22.11.22.22,0,.06.03.14.08.16l.11.11c.11.11.16.24.16.4v.11c0,.22.08.43.24.57l.3.3c.08.08.16.19.24.27l.49.73c.06.08.11.16.19.22l.06.06c.14.14.22.27.27.43l.19.57c.03.11.16.19.27.19.08,0,.16.03.22.08l.08.08c.11.11.16.24.16.4v.16c0,.19.06.35.14.52l.16.27c.43.68,1.24,1.03,2.03.82l1.06-.27c.16-.06.35,0,.46.14.08.08.22.14.33.14h.3c.08,0,.16.08.16.16,0,.08.08.16.16.16h.08c.05,0,.14-.03.16-.08l.16-.16c.06-.05.14-.05.19,0l.08.08c.05.06.16.03.16-.08,0-.05.05-.11.11-.11h.13c.06,0,.11-.06.11-.11,0-.08.11-.14.19-.08l.98.76c.11.08.22.14.32.14l2.12.3h.03c.08,0,.16.08.16.16v.7c0,.22.08.44.24.6l.46.46c.19.19.3.46.3.73,0,.16.03.32.11.46l.08.19c.08.19.22.35.35.49l.33.33c.08.08.19.16.3.22l.06.03c.3.13.62.13.92,0l.06-.03c.11-.06.22-.08.32-.08s.22-.02.32-.08l1.68-.84c.11-.05.24-.08.35-.08.3,0,.57-.16.7-.44l.03-.08c.05-.11.08-.22.08-.35,0-.3.16-.57.43-.7l.11-.06c.08-.05.19-.11.24-.19l.38-.38c.11-.14.3-.19.46-.19.24,0,.49-.13.6-.35l.3-.57c.14-.24.32-.49.57-.65l.11-.05c.36-.24.76-.35,1.2-.35h.46c.16,0,.32-.06.46-.14l.62-.41c.08-.05.19-.02.22.06.03.05,0,.16-.06.19l-.68.46c-.14.11-.27.22-.32.38-.14.27-.14.6,0,.87l.03.08c.05.11.13.22.22.3l.11.11c.43.44.52,1.14.16,1.68l-.02.03c-.03.06-.08.11-.11.14-.16.16-.27.41-.27.65v1.06c0,.14.03.27.05.4l.22.98c0,.06,0,.11-.03.14-.03.03-.06.06-.06.11v3.34c0,.16-.03.32-.11.46l-.08.19c-.08.16-.08.38,0,.54l.03.05c.11.22.05.46-.11.62-.06.06-.08.08-.11.14l-.11.22c-.11.24-.14.54-.05.79l.03.05c.11.33.02.71-.22.95-.16.16-.4.27-.65.27h-2.03c-.16,0-.33.03-.49.08l-.08.02c-.43.14-.76.52-.89.95l-.03.05c-.08.35-.32.62-.62.79l-.11.05c-.06.03-.11.06-.14.11-.16.16-.22.41-.11.62l.49,1,.87,1.71c.11.19.16.4.22.62l.24,1.46c.03.13.08.24.19.35.11.11.19.3.19.46v.14l-.24,1.65c-.06.38-.33.7-.7.84l-.27.08c-.08.03-.16.11-.22.19l-.14.3c-.06.11.03.24.14.24.05,0,.08.03.11.06l.22.22c.05.06.11.11.14.19l.32.65c.14.24.49.24.6,0,.03-.05.03-.11.03-.16v-.11c0-.08-.03-.16-.11-.24-.22-.22-.06-.57.24-.57h.35c.27,0,.49-.22.49-.49v-.11c0-.06,0-.11.03-.14l.27-1.03c.03-.14.08-.27.16-.38l.44-.65c.05-.11.05-.24-.03-.32-.11-.11-.11-.27,0-.38l.08-.08c.06-.06.11-.08.16-.08.14,0,.24.11.24.24v.06c0,.27.32.41.51.22l.49-.49.03-.03c0-.05.08-.08.11-.02l.22.68v.54c0,.08.08.16.16.16s.16-.08.16-.16c0-.08.08-.16.16-.16h.08c.05,0,.11.03.16.08l.08.08c.11.11.3.11.38,0,.08-.08.22-.11.32-.05l.46.24s.03.03.06.03l.08.08c.08.08.24.03.24-.11s.16-.19.24-.11l.03.03c.05.05.11.05.19.02l.46-.22c.08-.05.16-.11.22-.16l2.36-2.36c.14-.14.27-.3.35-.46l1.11-1.98c.03-.08.08-.14.14-.19l.11-.11c.08-.08.14-.22.14-.33v-.3c0-.08.08-.16.16-.16.08,0,.16-.08.16-.16v-1c0-.14.03-.24.06-.38l.22-.65c.03-.11.05-.24.05-.38,0-.3.11-.6.36-.84l.05-.05c.19-.19.32-.44.35-.68l.24-1.24.68-1.98.68-1.98.6-1.46c.06-.14.08-.24.11-.38l.3-1.46.3-1.82c.03-.11.03-.24.03-.35v-1.22c0-.19.03-.35.06-.54l.24-.98c.02-.05.02-.11.02-.19v-.65c0-.05.03-.08.08-.08.02,0,.05-.03.08-.06l.65-2.95.65-2.2c.03-.08.03-.16.03-.24,0-.14-.03-.27-.08-.41l-.08-.13c-.11-.22-.16-.46-.16-.71v-.73c0-.16-.06-.3-.16-.4-.11-.11-.16-.24-.16-.41v-.49c0-.19-.02-.38-.08-.54l-.19-.6c-.03-.11-.08-.19-.11-.27l-.38-.76c-.16-.3-.22-.62-.22-.98v-.14c0-.24-.05-.49-.13-.73l-1.41-3.96c-.08-.24-.14-.49-.14-.73v-.08c0-.14.03-.3.06-.44l.19-.95c.06-.32.06-.65-.02-.98l-.16-.57c-.06-.16-.03-.32.05-.49l.14-.27c.06-.11.03-.24-.05-.32l-.06-.06c-.08-.08-.22-.08-.3,0-.08.11-.24.08-.33-.02l-.4-.6c-.08-.14-.14-.27-.14-.44v-.54c0-.14-.11-.24-.24-.24-.06,0-.14-.03-.16-.08l-.22-.22s-.06-.05-.08-.05l-.49-.24c-.19-.11-.14-.41.11-.41.08,0,.16-.06.19-.11l.14-.24c.08-.19.08-.41,0-.6-.11-.22-.35-.38-.6-.38h-.08c-.11,0-.24-.03-.35-.08l-.38-.19c-.08-.03-.16-.08-.22-.16-.16-.16-.38-.24-.6-.24h-.24c-.27,0-.54-.08-.78-.24l-.52-.36c-.08-.05-.14-.13-.14-.24s-.05-.22-.16-.27l-.41-.19c-.08-.02-.16-.05-.24-.05-.14,0-.27-.06-.35-.16l-.03-.03c-.11-.11-.24-.16-.4-.16h-.11c-.22,0-.4.08-.57.24l-.19.19c-.16.16-.35.27-.57.35l-.65.22h-.06c-.14,0-.24.14-.16.27l.16.32c.03.06.06.11.06.19v1.82c0,.19-.24.24-.32.08-.03-.03-.03-.05-.03-.08v-.03c0-.32-.44-.43-.6-.14l-.06.14s-.03.06-.05.08l-.95.98c-.24.24-.65.08-.65-.27,0-.06.03-.11.05-.16l.52-1c.06-.11-.03-.24-.14-.24-.05,0-.08.03-.11.06l-.14.14c-.11.11-.22.16-.35.16h-.03c-.08,0-.13-.02-.22-.05-.27-.14-.35-.52-.11-.73l.19-.19s.02-.05.02-.08c0-.11-.14-.16-.22-.08l-.57.57c-.14.14-.14.35,0,.49.05.06.11.16.11.24v.54c0,.19-.16.33-.32.33h-.27s-.06.03-.06.05c0,.06-.08.08-.11.03l-.57-1.36s-.03-.02-.03-.05l-.11-.16c-.52-.84-1.57-1.16-2.47-.78l-.35.13c-.27.11-.57.11-.84,0l-.11-.05c-.57-.24-.78-.95-.46-1.46l.32-.68.52-.76c.11-.16.19-.32.24-.52l.19-.6c.03-.11.08-.19.11-.27l.13-.3c.08-.16.19-.32.33-.44.08-.08.19-.19.24-.32l.68-1.11c.14-.24.24-.49.3-.76l.19-1.17c.06-.27.16-.52.35-.7l.27-.27c.08-.08.11-.19.11-.3s-.06-.22-.11-.3c-.14-.14-.16-.32-.08-.49l.11-.24c.05-.11.08-.22.08-.35v-.52c0-.22.08-.4.22-.54.08-.08.14-.16.16-.24l.62-1.52.68-1.33.22-.46c.08-.14.11-.3.11-.46v-.08c0-.22.08-.44.24-.6.06-.06.11-.14.16-.22l.08-.16c.14-.27.19-.54.19-.84v-.98c0-.19.03-.35.05-.54l.16-.65c.08-.27.22-.52.41-.7.24-.24.4-.57.43-.9l.22-1.6c.06-.35.19-.7.38-.98l1.22-1.73c.06-.11.19-.16.3-.16s.19-.03.24-.11l.6-.6c.22-.22.46-.35.7-.49l1.08-.44c.11-.05.22-.11.32-.16l1.38-.84c.08-.06.16-.08.24-.08.14,0,.24-.05.35-.14l.14-.13c.05-.06.11-.08.16-.08.14,0,.24.11.24.24v.19c0,.16.08.3.22.38h.02c.22.11.52.03.62-.22l.03-.05c.05-.14.08-.27.03-.41l-.08-.27c-.08-.24.11-.51.38-.51h.24c.08,0,.16.08.16.16,0,.11.11.19.22.14l.73-.24c.06-.03.11-.03.19-.03.16,0,.3-.05.41-.16l.84-.84c.22-.22.52-.35.81-.35h.08c.05,0,.14,0,.19-.03l.57-.19c.16-.05.22-.27.08-.38-.06-.06-.11-.08-.16-.08-.14,0-.24-.11-.24-.24v-.27c0-.08.08-.16.16-.16s.16-.08.16-.16v-.62c0-.32.22-.62.54-.73l1.36-.46c.08-.03.19-.05.27-.05h.7c.08,0,.16.08.16.16,0,.08.08.16.16.16h.16c.19,0,.32-.16.32-.32v-.11c0-.13.08-.27.19-.35l.3-.19c.32-.22.73-.24,1.08-.08l.32.16c.3.14.62.14.92,0l.16-.08s.08-.03.14-.03h.11c.08,0,.16.08.16.16s-.08.16-.16.16h-.08c-.06,0-.14.02-.16.08l-.51.52c-.06.05-.11.11-.19.13l-.05.03c-.3.16-.44.49-.33.82l.08.22c.05.14.19.24.32.24.06,0,.11,0,.16-.03l.24-.11c.24-.11.43-.3.57-.52l.41-.6c.02-.06.08-.11.11-.14.16-.16.4-.27.65-.27h.08c.13,0,.27-.02.4-.08.3-.16.49-.46.49-.78v-.19c0-.19.06-.35.11-.52.14-.27.38-.49.68-.57l.38-.14c.11-.03.24-.05.38-.05h.24c.16,0,.3-.06.41-.16l.03-.03c.08-.08.14-.22.14-.32v-.19c0-.16.14-.3.3-.3h.49c.08,0,.14-.11.06-.16-.06-.05-.03-.16.08-.16h.06s.05,0,.08-.03l.08-.08c.14-.14.16-.33.08-.49l-.11-.19c-.08-.14-.19-.24-.32-.32l-.05-.03c-.24-.14-.54-.14-.82,0l-.16.08c-.08.03-.16.08-.22.16l-.11.14c-.08.08-.11.19-.11.3s-.05.22-.11.3l-.16.14c-.06.05-.11.08-.16.08-.14,0-.24-.11-.24-.24v-.87c0-.14-.11-.24-.24-.24-.06,0-.14-.02-.16-.08l-.14-.14c-.08-.08-.11-.19-.11-.3v-.11c0-.06.03-.08.06-.11l.11-.11c.05-.05.03-.16-.06-.16-.05,0-.11-.06-.11-.11v-1.52c0-.27.06-.52.19-.73l.35-.7c.08-.16.16-.35.19-.57l.22-1.08c.03-.16-.02-.33-.13-.46-.08-.08-.14-.22-.14-.35v-.89c0-.16.02-.33.11-.46.14-.3.14-.62,0-.92l-.11-.22c-.22-.43-.22-.92,0-1.36l.27-.54c.03-.06.06-.14.08-.19l.16-.51c.08-.24.3-.41.57-.41.16,0,.3-.06.4-.16l.08-.11c.05-.05.08-.08.11-.14l.87-1.33c.24-.38.65-.6,1.08-.6h.19c.08,0,.16.03.24.06.3.14.65,0,.76-.33l.14-.38s.02-.06.02-.08c0-.24.27-.35.46-.19l.19.19s.06.06.08.11l.11.22c.14.27.19.54.19.84v.43c0,.3.14.6.32.81l.22.22c.08.08.11.19.11.3v.03c0,.08.02.16.11.24.14.14.35.14.49,0l.05-.06c.19-.19.52-.14.65.11l.08.16s0,.03.03.03c.08.27.49.24.54-.03l.46-2.3.68-3.66s-.03,0,0-.02l.19-.19s.03-.05.03-.08c0-.11.14-.16.22-.08l.08.08s.08.05.11.05h.14c.27,0,.49-.22.49-.49v-.02c0-.27-.22-.52-.52-.52h-.14c-.24,0-.46-.14-.57-.35l-.38-.76c-.08-.14-.11-.3-.11-.46v-.14c0-.19-.08-.38-.22-.52-.08-.08-.14-.19-.19-.3l-.03-.08c-.16-.46.03-.95.44-1.22l.05-.02c.19-.14.33-.3.41-.52l.11-.32c.08-.22.27-.38.52-.38h.43c.33,0,.49.38.24.6-.05.05-.08.11-.08.16l-.11.41c-.14.52-.06,1.06.24,1.52l.68,1c.14.22.22.46.22.7v.08c0,.14.03.27.08.4l.11.22c.08.16.27.27.46.27.22,0,.41.14.49.35l.16.49c.05.11.05.24.05.38v.14c0,.22.08.44.24.6.24.24.32.65.16.98-.06.08-.11.16-.16.22l-.22.22c-.24.22-.35.54-.35.86v.16c0,.22-.08.43-.24.6-.06.06-.11.14-.16.22l-.11.22c-.11.22-.16.46-.16.7v.43c0,.14.06.27.16.35.11.11.16.27.14.46l-.27,1.55c-.03.11-.03.24-.03.35v1.22c0,.16-.05.3-.16.4-.11.11-.16.24-.16.41v.03c0,.05,0,.11-.03.16l-.24.98c-.05.16-.05.35-.05.54v.57c0,.3.11.6.32.81l.22.22c.08.08.11.19.11.3s-.05.22-.11.3l-.05.05c-.11.11-.16.24-.16.41v1.52c0,.19-.03.35-.05.54l-.54,2.14c-.03.14-.08.3-.16.43l-.16.36c-.06.08-.08.16-.16.22-.16.16-.24.35-.24.6v.32c0,.22-.14.41-.32.52l-.44.22c-.24.14-.24.46,0,.6.06.03.08.06.14.11l.27.41c.24.35.35.76.35,1.19v1.11c0,.14-.03.3-.05.43l-.19.87c-.08.38-.05.76.08,1.14l.44,1.27c.03.11.08.19.14.3l.87,1.68c.05.11.11.22.19.3l4.44,6.04c.06.08.14.16.22.24l5.67,5.72c.11.11.22.24.32.41l.76,1.22c.08.13.19.27.32.4l1.08,1.08s.08.06.11.11c.46.3,1.06.06,1.16-.49l.08-.43c0-.08.03-.14.03-.22v-1.57c0-.19.08-.38.22-.52.08-.08.14-.19.19-.3l.14-.41c.11-.3.14-.62.11-.92l-.24-2.08c-.03-.27-.16-.54-.35-.73l-.3-.3c-.06-.05-.11-.08-.16-.08-.14,0-.24-.11-.24-.24v-.3c0-.08-.03-.16-.06-.24l-.19-.38c-.06-.11-.16-.19-.3-.19-.08,0-.16-.03-.22-.11l-.05-.06c-.11-.11-.11-.27,0-.38.08-.08.22-.11.32-.06l.08.06c.22.11.49,0,.57-.22l.65-1.49c.11-.27.33-.49.6-.62l.22-.11s.08-.03.11-.03h.05c.14,0,.22-.11.22-.22,0-.08-.02-.14-.08-.19l-1.06-.84c-.33-.27-.57-.6-.7-1l-.35-1.06c-.08-.22-.11-.46-.11-.7v-.68c0-.41.11-.79.33-1.14l.6-.98c.05-.11.16-.16.3-.16h.03c.08,0,.14.02.19.08.13.14.35.08.43-.06l.41-.78c.05-.14.11-.27.11-.41v-.08c0-.43-.22-.84-.57-1.08l-.92-.6c-.35-.24-.62-.57-.78-.95l-.52-1.17c-.16-.38-.22-.78-.16-1.16l.24-1.65v-.22c0-.11-.05-.22-.14-.3l-.03-.03c-.11-.11-.13-.27-.05-.41l.05-.11c.08-.16.3-.19.44-.08.05.06.08.11.08.19v.52c0,.22.19.38.38.38.16,0,.32-.11.38-.27l.08-.24c.11-.3,0-.62-.24-.81l-1.19-.95s-.05-.06-.05-.08c0-.11-.14-.16-.19-.08l-.27.27c-.11.11-.3.11-.4,0l-.73-.73c-.06-.06-.11-.14-.16-.19l-.24-.35c-.24-.36-.35-.79-.35-1.2v-.16c0-.14-.03-.27-.05-.38-.16-.49-.62-.81-1.14-.81h-.68c-.08,0-.19.02-.24.11l-.11.11c-.08.08-.08.22,0,.27.11.11.08.27-.05.32l-.24.14c-.11.05-.24.05-.35,0l-.19-.11c-.19-.11-.35-.27-.4-.49l-.79-2.33c-.08-.22-.11-.46-.11-.7v-1.57c0-.06-.03-.08-.05-.11l-.11-.11c-.06-.06-.03-.16.08-.16.05,0,.11-.06.11-.11v-.08c0-.08-.08-.16-.16-.16-.08,0-.16-.08-.16-.16v-.6c0-.16-.06-.3-.16-.41l-.08-.08c-.06-.05-.11-.08-.19-.08-.14,0-.24-.08-.27-.22l-.19-.95c-.06-.32-.03-.65.14-.95l.41-.81s.05-.08.08-.11l.19-.19c.06-.05.06-.13,0-.19-.08-.08-.02-.24.11-.24h.6c.06,0,.11.03.16.03l.06.03c.3.14.62,0,.73-.3v-.03c.08-.24-.03-.49-.24-.62l-.06-.02c-.14-.06-.22-.19-.22-.35,0-.06.03-.14.05-.19l.6-1.16c.02-.06.05-.11.05-.16l.22-.78c.06-.19.3-.27.44-.11l.02.02.06.08c.38.57,1.25.3,1.25-.38,0-.06,0-.08.02-.14l.27-1.3c.03-.19.11-.38.19-.54l.57-1.11c.22-.4.54-.73.95-.95l.68-.35.76-.3c.57-.24,1.22-.22,1.76.08l.32.16c.08.05.19.08.27.08.43,0,.73-.41.6-.81l-.03-.11c-.03-.06-.06-.11-.08-.16l-.24-.38c-.22-.35-.24-.79-.08-1.16.03-.06.06-.11.06-.16l.19-.6c.08-.22.11-.46.11-.68v-1.17c0-.11.06-.22.14-.3.14-.14.16-.33.08-.49l-.16-.35s-.06-.06-.11-.06c-.11,0-.14-.11-.08-.19l.11-.11s.05-.02.08-.02c.11,0,.16-.14.08-.22l-.3-.3c-.06-.06-.03-.19.08-.19.06,0,.08-.03.11-.08l.22-.68c.06-.16,0-.35-.11-.46l-.11-.11s-.05-.03-.08-.03c-.11,0-.16-.14-.08-.22l.38-.38c.06-.06.11-.14.11-.24v-.71c0-.08-.08-.16-.16-.16s-.16-.08-.16-.16v-.3c0-.11.11-.22.22-.22.08,0,.16-.05.19-.11l.19-.38c.06-.13.08-.27.08-.4v-.44s0-.05.02-.08c.03-.03.11-.03.14,0,.06.06.16.03.19-.05l.24-.76c.03-.06.03-.14.03-.19v-.86c0-.24.02-.46.11-.71l.57-1.65.54-1.62c.06-.19-.08-.38-.27-.38h-.06c-.14,0-.24-.11-.24-.24v-.03c0-.06-.03-.08-.05-.11l-.11-.11c-.05-.06-.02-.16.08-.16.05,0,.11-.06.11-.11,0-.08.11-.14.16-.08l.35.35c.11.11.24.11.35.05l2.79-1.71c.16-.11.19-.32.05-.43-.05-.06-.08-.14-.08-.19v-.38c0-.52-.32-.98-.81-1.14l-1-.32c-.14-.06-.22-.16-.22-.3,0-.22-.22-.38-.44-.3l-.4.14c-.14.05-.27.05-.38,0l-.57-.19c-.16-.05-.3-.11-.46-.22l-1.44-.9-1.36-.68c-.32-.16-.76,0-.86.35-.06.19-.22.35-.44.41l-.62.16c-.22.06-.46,0-.62-.16l-.05-.06c-.32-.32-.84-.19-1,.24l-.03.06v.08c0,.16-.13.3-.3.3h-1.68s-.06.03-.06.06c0,.06-.08.08-.11.03l-.11-.24c-.06-.08.03-.19.11-.19h.08s.06,0,.08-.02l1.62-.82c.16-.08.19-.3.06-.43-.06-.06-.08-.11-.08-.16,0-.14.11-.24.24-.24h.76c.22,0,.44-.08.62-.22l.52-.41c.32-.27.6-.62.73-1.03l.3-.84c.11-.35.14-.7.08-1.06l-.22-1.28c-.02-.11-.05-.22-.08-.32l-.35-1c-.16-.49-.62-.81-1.14-.81-.11,0-.19,0-.3-.03l-.57-.14c-.35-.08-.65-.38-.79-.73l-.11-.3c-.03-.08-.03-.19.03-.27l.14-.3c.05-.11-.03-.24-.14-.24-.06,0-.08-.02-.11-.05l-.03-.03c-.14-.14-.08-.35.08-.43l.24-.14c.06-.03.14-.03.19.03.08.11.27.02.27-.11v-.19c0-.24.3-.32.44-.14l.22.33s.03.05.06.08l.19.57c.08.24.3.41.57.41.16,0,.3-.06.41-.16l.08-.08c.06-.06.14-.11.24-.11s.24.08.3.19l.22.41c.19.35.68.43.98.16.05-.05.11-.13.14-.19l.54-1.33c.06-.14.11-.27.22-.38l.24-.35c.22-.32.48-.57.84-.73l.02-.03c.08-.02.16-.08.24-.11.57-.19,1.17-.11,1.66.22l.24.16c.43.22.92.27,1.41.16l.22-.06c.24-.05.46-.16.65-.3l.6-.41c.08-.06.14-.11.22-.16l.08-.08c.3-.3.73-.41,1.14-.27h.03c.22.08.43.08.65,0l.3-.11c.24-.08.41-.3.41-.57,0-.16-.06-.3-.16-.41l-.14-.14s-.03-.05-.03-.08c0-.11.14-.16.22-.08l.46.46c.16.16.46.14.57-.08l.03-.03c.05-.11.02-.27-.06-.35l-1.06-.44Z"></path><path class="st0" d="M381.38,468.41c.95,2.17,1.98,4.28,3.09,6.4-31.66,18.16-76.08,16.27-82.83,15.83-.46-.03-.87.35-.87.79.54,21.95,21.93,27.97,40.79,25.4,16.13-2.2,38.68-12.93,54.62-25.05,1.6,1.79,3.31,3.44,5.04,5.04-15.23,24.99-51.01,35.24-62.67,36.16-.57.06-.89.62-.62,1.11,7.64,13.22,24.91,17.65,43.77,8.59,11.22-5.4,25.15-19.52,34.72-35.35,2.2,1.08,4.5,2,6.83,2.79-5.94,29.84-35.62,48.06-40.79,51.04-.19.11-.33.3-.35.52-.03.22.03.43.16.6,8.84,9.92,29.19,10.14,41.63-4.23,7.64-8.84,13.53-25.26,16.83-45.08,9.16,0,30.11,3.93,37.13,22.5.3.79,1.55.57,1.55-.24v-50.82c0-.52-.54-.87-1.06-.71-11.52,3.8-23.5,4.28-31.79,2.66-16.34-2.9-28.73-16.24-28.73-32.29,0-9.21,4.09-17.54,10.68-23.53,1.41-1.25,1.22-3.39-.41-4.39-.7-.43-1.44-.87-2.11-1.3-57.14-36.27-109.15-120.32-114.76-129.56-.27-.43-.89-.51-1.27-.19-17.56,15.45-19.27,45.73-.79,69.47,12.22,15.69,37.87,32.88,64.16,47.79-.38,2.79-.62,5.58-.76,8.38-54.07-11.6-88.39-48.92-93.92-55.24-.38-.43-1.11-.35-1.36.16-9.95,19.54-1.3,45.75,18.43,56.76,17.32,9.65,44.51,15.32,77.96,19.33.35,2.44.81,4.85,1.33,7.24-50.2,6.75-89.42-11.58-96.17-14.99-.49-.24-1.11.05-1.17.6-2.55,20.9,10.65,37.67,33.18,41.39,22.66,3.74,70.53-7.56,70.53-7.56Z"></path><path class="st0" d="M384.52,574.93l-.89-1.71c-.19-.35.16-.73.51-.6h.03c.3.14.57-.16.49-.46l-.08-.19s-.03-.03-.05-.03c-.05,0-.08-.06-.03-.08l.27-.24.03-.02c.22-.19.54-.22.81-.06.08.06.14.11.19.19l.08.11c.19.3.51.49.87.54l.98.16h-.76c-.3,0-.51.3-.41.6.03.05.05.11.08.16l.22.24c.19.22.51.22.7.02l.24-.22c.08-.08.19-.11.3-.11.16,0,.33.08.38.24.03.06.05.11.05.19l.03.92.11,1,.19,1.38c.08.54-.27,1.06-.81,1.22l-.08.03c-.11.03-.22.11-.33.19l-.14.11c-.08.06-.16.11-.24.11-.11,0-.24-.05-.3-.16l-.84-1.17-1.6-2.38Z"></path><path class="st0" d="M675.96,679.65l-.54-1.03s-.04-.06-.07-.08c-.03-.02-.06-.03-.09-.04-.04,0-.08,0-.11.01-.03.01-.06.03-.08.06-.03.03-.08.06-.12.07-.05,0-.09,0-.14-.02l-.96-.47c-.17-.08-.32-.19-.45-.33l-.47-.47-.99-.78c-.22-.15-.39-.35-.52-.59l-.59-.96c-.15-.23-.24-.5-.28-.77l-.23-1.38c-.02-.12-.03-.23-.02-.35v-1.08c0-.24-.05-.49-.16-.7l-.07-.12c-.08-.15-.12-.31-.12-.47v-.09c0-.22.09-.43.23-.59.06-.07.12-.14.16-.21l.02-.05c.08-.16.19-.3.32-.4.14-.1.3-.18.47-.21l.47-.1c.41-.09.84-.05,1.22.12l1.06.42.26.12c.07.05.14-.07.09-.12h-.02l-.82-.54c-.13-.07-.23-.17-.33-.28l-.28-.28c-.16-.16-.3-.35-.4-.56l-.05-.09c-.09-.17-.2-.33-.33-.47l-1.74-1.95-1.64-1.99-1.32-1.64-.84-1.1s-.02-.03-.04-.03c-.02,0-.04,0-.05,0-.02,0-.03.01-.05.03s-.02.03-.02.05c0,.02,0,.05-.03.06-.02.02-.04.03-.07.03h-.09s-.04,0-.06-.01c-.02,0-.04-.02-.06-.03-.01-.02-.03-.04-.03-.06,0-.02-.01-.04-.01-.06v-.26c0-.08-.02-.15-.06-.22-.04-.07-.1-.12-.17-.15l-.31-.14c-.09-.05-.18-.11-.26-.19l-.12-.12c-.29-.28-.48-.64-.56-1.03l-.21-1.03-.61-1.78c-.02-.06-.06-.11-.11-.15-.05-.04-.11-.06-.17-.07-.04,0-.08,0-.12-.02-.04-.01-.07-.04-.09-.07l-.54-.54s-.06-.07-.07-.12l-.19-.38s-.02-.05-.02-.08,0-.05.02-.08c.01-.02.03-.05.06-.06.02,0,.05-.02.08-.02.04,0,.08.02.12.05l.21.21s.04.05.05.08c.01.03.02.06.02.09v.12s0,.03,0,.05.01.03.03.04c0,0,.02.02.04.02.01,0,.03,0,.05,0,.02,0,.04,0,.06-.02.02-.01.03-.03.04-.05,0-.02.01-.04.01-.06,0-.02,0-.04-.02-.06l-1.17-1.48-.84-1.1c-.1-.14-.16-.3-.16-.47,0-.12-.04-.25-.1-.36-.06-.11-.15-.21-.25-.28l-.66-.42-.02-.02s-.07-.04-.1-.05c-.04,0-.08,0-.11.01s-.07.04-.08.07c-.02.03-.03.07-.04.1v.02s0,.05,0,.08c0,.02-.02.04-.04.06-.02.02-.04.03-.06.04s-.05.01-.08.01h-.05s-.06,0-.09.02c-.03.01-.05.03-.08.05-.03.03-.05.07-.06.11,0,.04-.01.08,0,.12,0,.04.02.08.05.11.02.04.06.06.09.08l.35.16.92.61s.05.05.07.08c.01.03.02.07.02.11v.05s0,.04,0,.06.02.04.04.06c.01.01.03.02.05.03.02,0,.04.01.07.01.02,0,.04,0,.06,0,.02,0,.04.02.06.04.01.01.03.03.03.05,0,.02.01.04.01.07v.33s0,.04-.01.06c0,.02-.02.04-.03.06-.02.01-.04.03-.06.03-.02,0-.04.01-.06.01-.02,0-.05,0-.07,0-.02,0-.04.02-.05.04-.02.01-.03.03-.04.05,0,.02-.01.04,0,.07v.07s0,.06.01.09c.01.03.03.05.06.08l.07.07c.06.06.1.14.12.22.02.08.02.17,0,.25l-.12.38s-.04.08-.07.1-.07.05-.11.06-.08,0-.12,0c-.04-.01-.08-.04-.1-.07-.02-.02-.05-.04-.08-.06-.03,0-.06-.01-.09-.01h-.12c-.08,0-.16.02-.23.05l-.12.07c-.13.07-.24.16-.32.29-.08.12-.12.27-.13.41,0,.12.03.24.09.35l.16.35c.05.12.12.22.21.31.14.14.24.31.29.49l.59,2.04.47,1.65c.13.43.39.82.75,1.1l.75.59,1.15.92c.32.26.57.61.7,1.01l.02.07c.08.22.11.45.12.68v.28c0,.22.04.44.12.64.08.2.21.38.37.53.12.13.23.27.31.42l.14.31c.05.09.09.18.12.28l1.9,5.75c.02.05.03.11.02.16,0,.08.02.15.06.23.04.07.09.13.15.17l.73.56c.26.19.46.44.61.73l.38.73c.05.1.09.2.12.31l.16.52c.08.22.11.45.12.68v.28c0,.22.04.44.12.64.08.2.21.38.37.53.12.12.23.27.31.42l.12.23c.07.14.12.29.16.45l.54,2.16c.04.19.12.36.23.52l.96,1.45s.06.07.09.09c.03.02.08.04.12.04.04,0,.08,0,.13-.02.04-.01.08-.03.11-.07.03-.03.05-.06.07-.09.01-.04.02-.08.02-.12v-.42c0-.08,0-.17-.02-.26l-.28-1.36c-.02-.1-.02-.21,0-.31l.21-.82s.02-.07.05-.09c.02-.03.05-.04.08-.05.03,0,.07-.01.1,0,.03,0,.07.03.09.05.03.02.07.04.1.05.04,0,.08,0,.11,0l.49-.16c.26-.09.55-.08.8.05l.52.26c.3.15.54.38.68.68l.09.21s0,.01,0,.01c0,0,0,0,.01,0,.01.02.03.03.06.04.02,0,.04,0,.06-.01.02-.01.03-.03.04-.06,0-.02,0-.04-.01-.06l-.49-1.24Z"></path><path class="st0" d="M687.66,683.54l-.35.16c-.06.03-.13.05-.19.05h-.02c-.07,0-.14.01-.21.04-.07.02-.13.07-.17.11-.05.05-.09.11-.12.18-.03.07-.04.14-.04.21v.05c0,.05,0,.1-.02.14l-.31,1.25-.26,1.06c-.02.08-.02.16,0,.25.02.08.06.16.12.22l.07.07s.05.04.08.05c.03.01.06.02.09.02.07,0,.12-.03.17-.07.04-.04.07-.1.07-.16v-.92c0-.1.02-.19.05-.28l.16-.61c.1-.36.29-.69.54-.96l.56-.56s.04-.07.05-.12c-.02-.14-.14-.23-.26-.16Z"></path><path class="st0" d="M707.14,614.1l-.31.09c-.17.05-.35.05-.52,0l-.73-.26s-.03,0-.05-.02c-.01,0-.03-.02-.04-.04,0-.01-.01-.03-.01-.05,0-.01,0-.03,0-.05.02-.14-.12-.23-.21-.16l-.52.35c-.06.04-.1.1-.12.16,0,.05,0,.1,0,.15.01.05.04.09.08.12.04.03.08.06.14.07.05,0,.1,0,.15,0l.21-.07c.06-.02.12-.03.18-.02.07,0,.12.03.17.07l.4.26c.14.1.3.14.47.12l.84-.09c.06,0,.11-.03.15-.06.04-.04.08-.08.1-.14.02-.06.02-.11,0-.17,0-.06-.04-.11-.08-.15-.14-.09-.26-.14-.35-.09Z"></path><path class="st0" d="M689.56,685.4s-.04.07-.05.1c0,.03,0,.08.01.11.01.03.04.07.07.08.03.02.07.03.1.03.02,0,.05,0,.07-.01.02,0,.05-.02.06-.04.02-.02.03-.04.04-.06,0-.02.01-.05.01-.08,0-.04-.01-.07-.03-.1-.02-.03-.05-.06-.09-.07-.03-.01-.07-.02-.11-.01-.04,0-.07.02-.1.05Z"></path><path class="st0" d="M710.92,612.48s-.05-.05-.09-.05l-1.85.19s-.03,0-.05.01c-.01,0-.03.02-.04.03s-.01.03-.01.05c0,.01,0,.03,0,.05.02.05.05.07.09.07l.59.02c.13,0,.26-.03.38-.09h.02c.08-.06.16-.09.26-.09l.61-.05c.09-.02.12-.07.09-.14Z"></path><path class="st0" d="M698.67,645.56s-.08.01-.11.03c-.03.02-.06.05-.08.08l-.09.19s-.03.07-.03.11c0,.04,0,.08.02.11.01.04.04.07.07.09.03.02.07.04.1.05.04,0,.08,0,.12,0,.04,0,.08-.02.11-.05.03-.02.06-.05.07-.09.02-.04.03-.08.03-.11v-.21c-.02-.12-.09-.21-.21-.21Z"></path><path class="st0" d="M693.69,604.22c-.09-.08-.21-.11-.33-.12-.13,0-.25.05-.35.15-.09.09-.15.22-.15.35v3.31s.02.09.05.12c.03.03.08.05.12.05s.08-.01.12-.05c.03-.03.05-.07.05-.12v-.66c0-.13.03-.26.09-.38l.14-.28c.08-.15.12-.3.12-.47v-.09c0-.22.09-.42.23-.59.07-.06.11-.13.14-.21v-.02c.08-.15.11-.33.08-.5-.03-.17-.13-.32-.26-.44l-.05-.05Z"></path><path class="st0" d="M694.21,671.45s-.02.05-.05.07l-.61,1.53c-.02.07-.04.14-.05.21v.12c0,.07-.02.14-.07.19-.03.03-.05.07-.06.1,0,.04-.01.08,0,.13,0,.04.02.08.05.11.02.03.06.06.09.08l.02.02s.08.03.13.03c.04,0,.08,0,.12-.03.04-.01.07-.04.1-.08.02-.03.04-.07.06-.11l.56-1.95v-.26s.01-.08,0-.12c-.01-.04-.04-.07-.08-.09-.03-.02-.08-.03-.11-.02-.04,0-.08.03-.1.07Z"></path><path class="st0" d="M697.16,666.08s-.04-.06-.07-.08c-.03-.02-.07-.03-.1-.02-.04,0-.07.02-.09.05-.02.03-.04.06-.04.1,0,.01,0,.03,0,.04,0,.01,0,.02-.02.03l-.31.61v.05s0,.04.01.06c0,.02.03.03.05.04.02,0,.04,0,.06,0,.02,0,.03-.02.04-.04l.45-.68s.03-.09.02-.14Z"></path><path class="st0" d="M691.93,676.26s-.06-.08-.1-.1c-.04-.02-.09-.04-.14-.04-.05,0-.1.01-.15.04-.04.03-.08.08-.09.12l-.26.77-.07.14-.07.14c-.07.14-.17.26-.31.34-.13.08-.29.13-.44.13h-.59c-.06,0-.12.03-.16.07-.05.04-.07.1-.07.16,0,.03,0,.07.02.09,0,.03.03.05.05.07l.05.05c.06.07.1.15.12.24,0,.08,0,.18-.05.26l-.38.77c-.09.2-.14.41-.14.63s-.05.44-.14.63l-.02.07c-.09.2-.14.41-.14.63v.14c0,.12-.03.24-.09.35l-.19.4s-.03.07-.02.11c0,.04.02.08.05.1.02.02.05.04.08.04.03,0,.06,0,.09,0,.03,0,.06-.03.08-.05.02-.02.04-.05.05-.08l.21-1.08c.03-.15.1-.29.21-.4l.28-.26c.15-.15.23-.35.23-.56,0-.21.08-.41.23-.56l.19-.19c.16-.16.28-.35.35-.56l.07-.19c.11-.32.28-.61.52-.85l.31-.3.4-.42c.08-.08.14-.19.15-.31.02-.12,0-.24-.06-.35l-.07-.21Z"></path><path class="st0" d="M697.73,656.26s.02.02.03.03c.01,0,.03,0,.05,0,.01,0,.03,0,.04-.02.01-.01.02-.03.02-.04,0-.02,0-.05-.02-.05-.07-.07-.16,0-.12.07Z"></path><path class="st0" d="M697.96,652.53s-.03-.06-.06-.08c-.02-.02-.06-.04-.09-.05-.03,0-.07,0-.1,0-.03.01-.06.03-.08.06-.03.03-.05.07-.06.11,0,.04,0,.08,0,.12l.26.52s0,.04.02.05c0,.03,0,.05.02.07.01.02.03.04.06.05.02,0,.05.01.07,0,.02,0,.05-.01.07-.03l.05-.05s.03-.05.04-.08c0-.03,0-.06,0-.09l-.21-.61Z"></path><path class="st0" d="M697.68,661.52s-.05,0-.07.01-.04.02-.05.03c-.02.02-.03.04-.04.06,0,.02,0,.04,0,.07v.09s0,.06.02.09c.02.03.05.05.08.06.03.01.07.02.1,0,.03,0,.06-.02.08-.04.03-.03.05-.08.05-.12v-.09s0-.05-.01-.07c0-.02-.02-.04-.03-.06-.01-.01-.03-.02-.06-.03-.02,0-.04-.01-.06-.01Z"></path><path class="st0" d="M698.22,646.57s-.05-.07-.07-.12l-.09-.09s-.06-.05-.09-.07c-.04-.01-.08-.02-.11-.02s-.08,0-.11.02c-.03.01-.07.04-.09.07-.04.04-.07.1-.08.15,0,.06,0,.12.03.17l.16.33c.05.11.08.23.09.35v.49c0,.24-.06.49-.16.7l-.42.8c-.02.06-.03.11-.02.17,0,.06.03.11.07.15.02.03.05.06.08.07.03.01.07.02.11.02s.07,0,.1-.02c.03-.01.06-.04.08-.07l.35-.35c.08-.08.15-.19.19-.31l.16-.49c.08-.22.11-.45.12-.68v-.21c0-.3-.08-.59-.21-.84l-.09-.23Z"></path></g><path class="st0" d="M643.3,266.99c-1.29-4.15,40.78-4.26,40.78,22.09,0,17.62-25.15,25.98-25.15,44.28,0,8.55,9.18,14.8,12,14.8-6.5-29.4,20.31-14.02,27.55-8.52-14.39-39.44,17.99-39.29,14.81-57.4-2.21-12.67-30.36-8.84-40.54-15.25-18.07-11.39-39.46-55.64-53.57-11.39,26.31,24.38,11,60.27-22.36,60.27-.11,1.89-.06,3.79.13,5.68,39.78-1.95,53.64-31.16,46.35-54.56Z"></path><path class="st0" d="M384.38,339.64c7.26-5.5,34.04-20.88,27.6,8.52,2.79,0,11.97-6.26,11.97-14.8,0-18.41-25.18-26.66-25.18-44.28,0-26.3,42.09-26.3,40.8-22.09-7.29,23.4,6.6,52.59,46.38,54.56.14-1.89.14-3.79,0-5.68-33.36,0-48.65-35.89-22.39-60.27-14.08-44.26-35.46,0-53.54,11.39-10.18,6.42-38.33,2.63-40.54,15.25-3.18,18.12,29.18,17.88,14.78,57.4h.11Z"></path><path class="st0" d="M519.36,321.87h44.01s.01.05.02.08,16.53,0,16.53,0c0,0,13.5-21.43,16.89-30.11,12.16-31.16-3.39-43.91-26.1-43.91l-29.36,34.37-29.33-34.47c-22.73,0-38.25,12.75-26.07,43.91,3.37,8.68,16.86,30.11,16.86,30.11,0,0,0,.02,0,.03,0,0,16.55,0,16.55,0Z"></path></g><circle class="st0" cx="542.4" cy="242.97" r="14.32"></circle></g><path class="st0" d="M565.94,529.62c-1.19-4.61-2.14-8.65-3.25-12.66-.87-3.23-1.19-9.32,2.56-9.32,2.03,0,1.21,5.66,1.03,8.07-.16,2.14.6,3.44,2.32,3.5,1.09.05,2.45-1.33,3.23-2.25,5.46-6.15,6.69-15.67.33-20.25-5.35-3.85-18.68-.98-22.34,4.5-.54-2.07-3.19-5.48-4.47-6.97-1.22-1.43-1.55-2.43.16-3.71.81-.62,3.23-3.03,3.23-5.53,0-1.49-1.15-4.21-4.78-4.21-2.86,0-6.07,1.98-6.07,6.42,0,.98.24,2.04.87,3.18-1.3-.22-4.17-.22-6.63.02h0c-.64.04-1.32.11-2.03.2l28.64,78.7c.38,1.05-.16,2.21-1.21,2.59-.99.36-2.06-.1-2.51-1.03l-36-98.91c-.38-1.05-1.54-1.59-2.6-1.21-1.05.38-1.59,1.54-1.21,2.59l6.8,18.68s-.06.01-.06.01c-6.29,1.49-16.42,6.09-16.42,12.17,0,8.1,14.31,13.36,22.61,12.74-.42,1.85.05,3.5,1.35,4.99-3.01,0-8.67,1.41-10.55,3.41-4.38-4.1-11.24-5.59-14.52-3.1-3.28,2.5-3.39,6.75.05,11.55,2.39,3.34,3.28,6.62.6,10.47,9.97,0,6.31-12.99,10.22-12.99-.51,2.52-.18,5.42.95,8.65.76,2.14.76,3.66-.54,5.75-3.23,5.14-8.22,16.97-7.54,27.64-3.28-.02-4.94-.81-3.81-5.29.44-1.65-.59-2.84-1.94-.81-1.49,2.25-2.23,6.13-2.23,7.78,0,9.52,11.33,11.44,15.67,9.43,12.51,12.11,37.1,8.89,45.35,4.82,6.57-2.79,20.63-10.3,20.63-23.44v-.13c0-7.16-10.55-4.81-15.67.81-1.65-9.08-3.12-17.46-4.71-25.8-.38-2.34.78-3.14,2.63-3.85,6.2-2.3,15.93-.43,15.61,8.54-.09,2.03,2.77,2.03,2.97-.05,1.87-13.42-7.21-17.3-16.72-15.72ZM513.09,569.49c-.89-4.88,5.91-13.63,14.56-22.06-1.85,5.49-.71,14.95,2.92,18.24-6.26-.04-13.71,1.16-17.48,3.82Z"></path></g></svg> 