<?xml version="1.0" encoding="UTF-8"?> <!-- Generator: Adobe Illustrator 25.4.1, SVG Export Plug-In . SVG Version: 6.00 Build 0) --> <svg xmlns="http://www.w3.org/2000/svg" xmlns:xlink="http://www.w3.org/1999/xlink" id="Layer_1" x="0px" y="0px" viewBox="0 0 607.22 226.33" style="enable-background:new 0 0 607.22 226.33;" xml:space="preserve"> <style type="text/css"> .st0{fill:#FFFFFF;} .st1{fill:#3C3C3B;} .st2{fill:url(#SVGID_1_);} .st3{fill:url(#SVGID_00000098195385068159014750000007686752356888304052_);} .st4{fill:#1D1D1B;} </style> <g> <g> <g> <g> <path class="st0" d="M78.06,119.06h5.48c4.41,0,8.35-2.73,9.89-6.87l0.01-0.04l12.53-33.65v-18.5c0-6.42-5.21-11.63-11.63-11.63 h-45v0.37c5,1.3,8.7,5.84,8.7,11.25v124.89c0,5.41-3.69,9.95-8.7,11.25v0.37h45c6.42,0,11.63-5.21,11.63-11.63v-18.45 L93.39,132.7c-1.51-4.13-5.44-6.88-9.85-6.88h-5.48c-0.93,0-1.78-0.38-2.39-0.99c-0.61-0.61-0.99-1.46-0.99-2.39 C74.68,120.57,76.2,119.06,78.06,119.06z"></path> <path class="st1" d="M94.35,196.97h-45c-0.25,0-0.46-0.2-0.46-0.46v-0.37c0-0.21,0.14-0.39,0.34-0.44 c4.92-1.28,8.35-5.72,8.35-10.81V59.99c0-5.09-3.44-9.53-8.35-10.81c-0.2-0.05-0.34-0.23-0.34-0.44v-0.37 c0-0.25,0.2-0.46,0.46-0.46h45c6.66,0,12.09,5.42,12.09,12.08v18.5c0,0.05-0.01,0.11-0.03,0.16l-12.53,33.65 c-1.61,4.33-5.75,7.2-10.33,7.2h-5.48c-1.61,0-2.93,1.31-2.93,2.93c0,0.78,0.3,1.52,0.86,2.07c0.55,0.56,1.28,0.86,2.07,0.86 h5.48c4.58,0,8.7,2.89,10.27,7.18l12.59,33.73c0.02,0.05,0.03,0.1,0.03,0.16v18.45C106.43,191.55,101.01,196.97,94.35,196.97z M49.35,196.14L49.35,196.14L49.35,196.14z M51.03,196.06h43.32c6.16,0,11.18-5.01,11.18-11.17v-18.37l-12.56-33.65 c-1.44-3.94-5.23-6.58-9.42-6.58h-5.48c-1.03,0-1.99-0.4-2.71-1.13c-0.72-0.72-1.12-1.68-1.12-2.71c0-2.12,1.72-3.84,3.84-3.84 h5.48c4.2,0,8-2.64,9.46-6.57l12.52-33.62V59.99c0-6.16-5.01-11.17-11.18-11.17H51.03c4.47,1.84,7.47,6.23,7.47,11.17v124.89 C58.5,189.83,55.5,194.22,51.03,196.06z"></path> </g> </g> <g> <linearGradient id="SVGID_1_" gradientUnits="userSpaceOnUse" x1="128.1979" y1="44.5255" x2="128.1979" y2="118.6906"> <stop offset="0.0354" style="stop-color:#3A61A9"></stop> <stop offset="0.0633" style="stop-color:#3879BA"></stop> <stop offset="0.0992" style="stop-color:#3690CB"></stop> <stop offset="0.1374" style="stop-color:#34A1D8"></stop> <stop offset="0.1789" style="stop-color:#33ACDF"></stop> <stop offset="0.23" style="stop-color:#33AFE1"></stop> <stop offset="0.3756" style="stop-color:#3598D1"></stop> <stop offset="0.6136" style="stop-color:#387ABB"></stop> <stop offset="0.8165" style="stop-color:#3967AE"></stop> <stop offset="0.9589" style="stop-color:#3A61A9"></stop> </linearGradient> <path class="st2" d="M125.82,48.37c-5.19,0-9.82,3.22-11.64,8.09l-8.21,22.04l-12.53,33.65l-0.01,0.04 c-1.54,4.13-5.48,6.87-9.89,6.87h22.43h28.94c4.67,0,8.88-2.91,10.51-7.3l21.09-56.51c1.1-3.03,3.46-5.27,6.34-6.28v-0.6H125.82z "></path> <path class="st1" d="M134.91,119.51H83.55c-0.25,0-0.46-0.2-0.46-0.46s0.2-0.46,0.46-0.46c4.2,0,8-2.64,9.46-6.57l20.75-55.74 c1.87-5.01,6.71-8.38,12.06-8.38h47.03c0.25,0,0.46,0.2,0.46,0.46v0.6c0,0.19-0.12,0.37-0.3,0.43c-2.83,0.99-5.03,3.18-6.06,6.01 l-21.09,56.51C144.16,116.46,139.77,119.51,134.91,119.51z M87.91,118.6h47.01c4.47,0,8.53-2.81,10.08-7l21.09-56.51 c1.03-2.83,3.15-5.08,5.89-6.27h-46.15c-4.97,0-9.47,3.13-11.21,7.79l-20.74,55.7C92.8,115.19,90.61,117.43,87.91,118.6z"></path> </g> <g> <linearGradient id="SVGID_00000155830841028615252260000010910544075694375860_" gradientUnits="userSpaceOnUse" x1="128.1979" y1="199.3723" x2="128.1979" y2="125.9093"> <stop offset="0.0918" style="stop-color:#E94B4C"></stop> <stop offset="0.1374" style="stop-color:#DA4143"></stop> <stop offset="0.2066" style="stop-color:#CA3839"></stop> <stop offset="0.2861" style="stop-color:#C13234"></stop> <stop offset="0.3983" style="stop-color:#BE3132"></stop> <stop offset="0.626" style="stop-color:#D5373B"></stop> <stop offset="0.8442" style="stop-color:#E73C42"></stop> <stop offset="0.8809" style="stop-color:#E33B41"></stop> <stop offset="0.9221" style="stop-color:#D5383D"></stop> <stop offset="0.9653" style="stop-color:#BF3436"></stop> <stop offset="1" style="stop-color:#A72F2F"></stop> </linearGradient> <path style="fill:url(#SVGID_00000155830841028615252260000010910544075694375860_);" d="M166.47,189.65l-20.75-55.74 c-1.81-4.86-6.52-8.09-11.64-8.09h-28.1H83.55c4.4,0,8.34,2.75,9.85,6.88l12.59,33.73l8.5,22.78c1.63,4.39,5.82,7.3,10.51,7.3 h47.86v-0.61C169.96,194.89,167.58,192.64,166.47,189.65z"></path> <path class="st1" d="M172.85,196.97h-47.86c-4.85,0-9.25-3.05-10.94-7.59l-21.09-56.51c-1.44-3.94-5.23-6.58-9.42-6.58 c-0.25,0-0.46-0.2-0.46-0.46c0-0.25,0.2-0.46,0.46-0.46h50.53c5.35,0,10.2,3.37,12.07,8.38l20.75,55.74c0,0,0,0,0,0 c1.05,2.81,3.27,4.99,6.1,5.99c0.18,0.06,0.3,0.24,0.3,0.43v0.61C173.31,196.77,173.1,196.97,172.85,196.97z M87.9,126.28 c2.69,1.17,4.87,3.41,5.92,6.27l21.09,56.51c1.56,4.19,5.61,7,10.08,7h47c-2.75-1.19-4.89-3.43-5.94-6.25l-20.75-55.74 c-1.73-4.66-6.24-7.79-11.21-7.79H87.9z"></path> </g> </g> <g> <path class="st4" d="M220.4,73.24v21.83h-5.02V77.36h-9.86v17.72h-5.02V73.24H220.4z"></path> <path class="st4" d="M245.61,81.16c0,4.87-3.65,7.89-9.48,7.89h-4.4v6.02h-5.05V73.24h9.45 C241.96,73.24,245.61,76.27,245.61,81.16z M240.49,81.16c0-2.4-1.56-3.81-4.65-3.81h-4.12v7.58h4.12 C238.93,84.94,240.49,83.53,240.49,81.16z"></path> <path class="st4" d="M266.9,91.02v4.05H250V73.24h16.5v4.05h-11.48v4.74h10.14v3.93h-10.14v5.05H266.9z"></path> <path class="st4" d="M288.98,88.96c0,4.12-4.49,6.49-9.73,6.49c-2.9,0-5.99-0.72-8.7-2.28l1.56-3.62c2,1.22,4.43,1.78,6.55,1.78 c2.87,0,5.21-1.06,5.21-3.09c0-1.65-1.5-2.46-3.77-2.46h-5.33v-3.81h4.96c2.06,0,3.24-0.9,3.24-2.34c0-1.78-1.93-2.71-4.4-2.71 c-1.84,0-3.99,0.5-5.86,1.56l-1.53-3.93c2.37-1.22,4.99-1.78,7.49-1.78c5.05,0,9.42,2.31,9.42,6.27c0,2.12-1.22,3.81-3.15,4.65 C287.46,84.56,288.98,86.5,288.98,88.96z"></path> <path class="st4" d="M293.96,73.24h5.02v14.22l10.42-14.22h4.74v21.83h-4.99V80.88l-10.42,14.19h-4.77V73.24z"></path> <path class="st4" d="M343.08,90.96v8.64h-4.68v-4.52H323v4.52h-4.68l0.03-8.64h0.87c2.84-0.09,3.56-4.77,3.77-10.88l0.25-6.83 h16.78v17.71H343.08z M325.28,90.96h9.76v-13.6h-7.49l-0.09,3.18C327.27,85.19,326.77,89.18,325.28,90.96z"></path> <path class="st4" d="M364.43,91.02v4.05h-16.9V73.24h16.5v4.05h-11.48v4.74h10.14v3.93h-10.14v5.05H364.43z"></path> <path class="st4" d="M389.65,73.24v21.83h-5.05v-8.95h-9.92v8.95h-5.05V73.24h5.05v8.61h9.92v-8.61H389.65z"></path> <path class="st4" d="M412.77,77.36h-6.99v17.72h-4.99V77.36h-6.96v-4.12h18.93V77.36z"></path> <path class="st4" d="M415.21,84.16c0-6.58,5.05-11.29,11.85-11.29c3.77,0,6.92,1.37,8.98,3.87l-3.24,2.99 c-1.47-1.68-3.31-2.56-5.49-2.56c-4.09,0-6.99,2.87-6.99,6.99c0,4.12,2.9,6.99,6.99,6.99c2.18,0,4.02-0.87,5.49-2.59l3.24,2.99 c-2.06,2.53-5.21,3.9-9.01,3.9C420.27,95.45,415.21,90.74,415.21,84.16z"></path> <path class="st4" d="M448.77,86.28h-3.49v8.8h-5.02V73.24h5.02v8.83h3.62l5.74-8.83h5.33l-7.14,10.54l7.36,11.29h-5.74 L448.77,86.28z"></path> <path class="st4" d="M464.31,73.24h5.02v14.22l10.42-14.22h4.74v21.83h-4.99V80.88l-10.42,14.19h-4.77V73.24z"></path> <path class="st4" d="M490.76,73.24h5.02v14.22l10.42-14.22h4.74v21.83h-4.99V80.88l-10.42,14.19h-4.77V73.24z M494.78,67.06h3.46 c0.03,1.5,0.87,2.28,2.59,2.28c1.65,0,2.56-0.78,2.59-2.28h3.46c-0.03,3.06-1.97,4.77-6.05,4.77 C496.68,71.84,494.81,70.12,494.78,67.06z"></path> <path class="st4" d="M214.94,131.1v2.37h-4.65v-2.4c-7.39-0.44-11.45-3.84-11.45-9.54c0-5.74,4.05-9.11,11.45-9.54v-2.25h4.65 v2.21c7.36,0.44,11.42,3.87,11.42,9.58C226.36,127.27,222.34,130.73,214.94,131.1z M210.3,127.14v-11.2 c-4.43,0.41-6.55,2.18-6.55,5.58C203.75,124.9,206.09,126.71,210.3,127.14z M221.49,121.5c0-3.37-2.21-5.18-6.55-5.55v11.2 C219.34,126.74,221.49,124.9,221.49,121.5z"></path> <path class="st4" d="M230.1,121.59c0-6.49,5.05-11.29,11.95-11.29c6.86,0,11.95,4.77,11.95,11.29c0,6.52-5.08,11.29-11.95,11.29 C235.15,132.88,230.1,128.08,230.1,121.59z M248.88,121.59c0-4.15-2.93-6.99-6.83-6.99c-3.9,0-6.83,2.84-6.83,6.99 c0,4.15,2.93,6.99,6.83,6.99C245.95,128.58,248.88,125.74,248.88,121.59z"></path> <path class="st4" d="M278.84,110.68v21.83h-5.05v-8.95h-9.92v8.95h-5.05v-21.83h5.05v8.61h9.92v-8.61H278.84z"></path> <path class="st4" d="M307.8,128.39v8.64h-4.68v-4.52h-15.41v4.52h-4.68l0.03-8.64h0.87c2.84-0.09,3.56-4.77,3.77-10.88l0.25-6.83 h16.78v17.71H307.8z M289.99,128.39h9.76v-13.6h-7.49l-0.09,3.18C291.99,122.62,291.49,126.61,289.99,128.39z"></path> <path class="st4" d="M331.6,123.71h-3.49v8.8h-5.02v-21.83h5.02v8.83h3.62l5.74-8.83h5.33l-7.14,10.54l7.36,11.29h-5.74 L331.6,123.71z"></path> <path class="st4" d="M367.99,110.68l-9.29,17.28c-1.81,3.37-4.4,5.05-7.33,5.05c-1.15,0-2.34-0.25-3.56-0.75l1.22-3.84 c0.81,0.25,1.53,0.41,2.18,0.41c1.25,0,2.21-0.56,3.06-1.87l0.19-0.25l-8.61-16.03h5.4l5.8,11.73l5.99-11.73H367.99z"></path> <path class="st4" d="M390.1,110.68v21.83h-4.99v-17.72h-7.49l-0.16,4.55c-0.28,8.58-1.5,13.5-6.61,13.5 c-0.75,0-1.56-0.12-2.5-0.34l0.31-4.27c0.31,0.09,0.59,0.12,0.9,0.12c2.56,0,3.21-3.24,3.43-8.83l0.31-8.86H390.1z"></path> <path class="st4" d="M415.23,124.9c0,5.02-3.37,7.61-8.98,7.61h-9.86v-21.83h5.02v7.17h5.55 C412.23,117.85,415.23,120.19,415.23,124.9z M410.14,124.99c0-2.4-1.56-3.4-4.18-3.4h-4.55v7.17h4.55 C408.55,128.76,410.14,127.46,410.14,124.99z"></path> <path class="st4" d="M434.6,114.79h-6.99v17.72h-4.99v-17.72h-6.96v-4.12h18.93V114.79z"></path> <path class="st4" d="M459.73,110.68l-9.29,17.28c-1.81,3.37-4.4,5.05-7.33,5.05c-1.15,0-2.34-0.25-3.56-0.75l1.22-3.84 c0.81,0.25,1.53,0.41,2.18,0.41c1.25,0,2.21-0.56,3.06-1.87l0.19-0.25l-8.61-16.03h5.4l5.8,11.73l5.99-11.73H459.73z"></path> <path class="st4" d="M482.69,118.6c0,4.87-3.65,7.89-9.48,7.89h-4.4v6.02h-5.05v-21.83h9.45 C479.04,110.68,482.69,113.7,482.69,118.6z M477.57,118.6c0-2.4-1.56-3.81-4.65-3.81h-4.12v7.58h4.12 C476.02,122.37,477.57,120.97,477.57,118.6z"></path> <path class="st4" d="M507.1,110.68v21.83h-5.05v-8.95h-9.92v8.95h-5.05v-21.83h5.05v8.61h9.92v-8.61H507.1z"></path> <path class="st4" d="M532.23,124.9c0,5.02-3.37,7.61-8.98,7.61h-9.86v-21.83h5.02v7.17h5.55 C529.23,117.85,532.23,120.19,532.23,124.9z M527.15,124.99c0-2.4-1.56-3.4-4.18-3.4h-4.55v7.17h4.55 C525.55,128.76,527.15,127.46,527.15,124.99z M535,110.68h5.02v21.83H535V110.68z"></path> <path class="st4" d="M550.48,110.68l4.52,6.61l4.52-6.61h5.93l-7.27,10.45l7.86,11.38h-5.96l-5.08-7.24l-5.02,7.24h-5.83 l7.8-11.17l-7.3-10.67H550.48z"></path> <path class="st4" d="M200.5,148.11h5.02v14.22l10.42-14.22h4.74v21.83h-4.99v-14.19l-10.42,14.19h-4.77V148.11z"></path> <path class="st4" d="M246.98,148.11v21.83h-5.05v-8.95h-9.92v8.95h-5.05v-21.83h5.05v8.61h9.92v-8.61H246.98z"></path> <path class="st4" d="M253.26,148.11h5.02v14.22l10.42-14.22h4.74v21.83h-4.99v-14.19l-10.42,14.19h-4.77V148.11z"></path> <path class="st4" d="M302.61,165.83v8.73h-4.65v-4.62h-18.25v-21.83h5.02v17.72h9.73v-17.72h5.02v17.72H302.61z"></path> <path class="st4" d="M307.02,148.11h5.02v14.22l10.42-14.22h4.74v21.83h-4.99v-14.19l-10.42,14.19h-4.77V148.11z"></path> <path class="st4" d="M348.52,165.26h-10.14l-1.93,4.68h-5.18l9.73-21.83h4.99l9.76,21.83h-5.3L348.52,165.26z M346.93,161.43 l-3.46-8.36l-3.46,8.36H346.93z"></path> <path class="st4" d="M374.04,152.23h-6.99v17.71h-4.99v-17.71h-6.96v-4.12h18.93V152.23z"></path> <path class="st4" d="M378.2,148.11h5.02v14.22l10.42-14.22h4.74v21.83h-4.99v-14.19l-10.42,14.19h-4.77V148.11z"></path> <path class="st4" d="M423.9,163.8c0,3.8-2.96,6.14-8.48,6.14h-10.76v-21.83h10.17c5.05,0,8.05,2.03,8.05,5.65 c0,2.21-1.15,3.87-3.09,4.8C422.43,159.34,423.9,161.15,423.9,163.8z M409.67,157.16h4.71c2.18,0,3.34-0.9,3.34-2.65 c0-1.71-1.15-2.65-3.34-2.65h-4.71V157.16z M418.78,163.39c0-1.84-1.22-2.71-3.56-2.71h-5.55v5.52h5.55 C417.56,166.2,418.78,165.3,418.78,163.39z"></path> </g> </g> </svg> 