<svg xmlns="http://www.w3.org/2000/svg" fill-rule="evenodd" viewBox="0 0 100 100">
    <path d="M84.323 5.565h-68a1.5 1.5 0 0 0-1.5 1.5v86.35a1.5 1.5 0 0 0 1.5 1.5h68a1.5 1.5 0 0 0 1.5-1.5V7.065a1.5 1.5 0 0 0-1.5-1.5zm-1.5 86.349h-65V8.564h65v83.35z"/>
    <path d="m30.05 61.061 7.61-1.697 1.39 7.223a1.5 1.5 0 0 0 2.8.415l8.473-16.112 8.473 16.112a1.5 1.5 0 0 0 2.8-.415l1.39-7.223 7.61 1.697a1.498 1.498 0 0 0 1.56-2.317l-9.87-14.264a1.495 1.495 0 0 0-.28-.297 14.24 14.24 0 0 0 2.244-7.677c0-7.863-6.338-14.26-14.129-14.26-7.79 0-14.128 6.396-14.128 14.26 0 2.935.885 5.664 2.399 7.934-.011.014-.024.025-.034.04l-9.87 14.264a1.498 1.498 0 0 0 1.562 2.317zm37.46-3.763-5.377-1.199a1.483 1.483 0 0 0-1.149.21 1.495 1.495 0 0 0-.65.971l-.873 4.537-6.031-11.469a14.082 14.082 0 0 0 6.67-3.76l7.41 10.71zM50.122 25.246c6.137 0 11.129 5.051 11.129 11.26 0 5.76-4.305 10.516-9.831 11.169a1.489 1.489 0 0 0-.851.06c-.146.006-.289.022-.436.022a1.493 1.493 0 0 0-1.041-.052c-5.654-.528-10.098-5.346-10.098-11.199 0-6.209 4.993-11.26 11.128-11.26zm-9.73 21.567a14.062 14.062 0 0 0 6.778 3.627l-5.983 11.377-.873-4.537a1.505 1.505 0 0 0-.65-.971 1.486 1.486 0 0 0-1.149-.21l-5.377 1.199 7.254-10.485zm17.703 32.346H42.552a1.5 1.5 0 1 0 0 3h15.543a1.5 1.5 0 1 0 0-3z"/>
</svg>
